<?xml version="1.0" standalone="no"?>
<!DOCTYPE svg PUBLIC "-//W3C//DTD SVG 1.1//EN" "http://www.w3.org/Graphics/SVG/1.1/DTD/svg11.dtd" >
<svg>
<metadata>
Created by FontForge 20090914 at Mon Feb 10 17:03:38 2020
 By www-data
2004 Vic Fieger, Xaviera Comics
</metadata>
<defs>
<font id="Virgo01" horiz-adv-x="1139" >
  <font-face 
    font-family="Virgo 01"
    font-weight="400"
    font-stretch="normal"
    units-per-em="2048"
    panose-1="2 0 0 0 0 0 0 0 0 0"
    ascent="1638"
    descent="-410"
    x-height="1599"
    cap-height="1599"
    bbox="-1 -402 1604 1608"
    underline-thickness="150"
    underline-position="-142"
    unicode-range="U+0020-U+F005"
  />
<missing-glyph horiz-adv-x="1536" 
d="M256 0v1280h1024v-1280h-1024zM288 32h960v1216h-960v-1216z" />
    <glyph glyph-name=".notdef" horiz-adv-x="1536" 
d="M256 0v1280h1024v-1280h-1024zM288 32h960v1216h-960v-1216z" />
    <glyph glyph-name="space" unicode=" " horiz-adv-x="999" 
 />
    <glyph glyph-name="space" unicode="&#xa0;" horiz-adv-x="999" 
 />
    <glyph glyph-name="exclam" unicode="!" horiz-adv-x="602" 
d="M0 602l0.000976562 802c0 131.333 66.667 197.333 200 198s200 -66.333 200 -201v-800c-0.666992 -132.667 -67.334 -199 -200.001 -199c-132 0 -198.667 66.667 -200 200zM101.501 -170c-31.667 17.333 -56.334 41.833 -74.001 73.5s-26.5 64.834 -26.5 99.501
c0 34 8.66699 66.833 26 98.5s41.833 56.167 73.5 73.5s64.834 26 99.501 26s67.667 -8.66699 99 -26s55.833 -41.833 73.5 -73.5s26.5 -64.5 26.5 -98.5c0 -34.667 -9 -67.834 -27 -99.501s-42.833 -56.167 -74.5 -73.5s-64.167 -26 -97.5 -26
c-34 0 -66.833 8.66699 -98.5 26z" />
    <glyph glyph-name="quotedbl" unicode="&#x22;" horiz-adv-x="1202" 
d="M798 1603c132.667 0 199.334 -66.667 200.001 -200v-301c0 -134.667 -66.667 -201.667 -200 -201c-134 0 -200.333 66 -199 198v303c1.33301 133.333 67.666 200.333 198.999 201zM200 1603c132.667 0 199.333 -66.667 200 -200v-301
c0 -134.667 -66.667 -201.667 -200 -201c-133.333 0 -200 66 -200 198v303c1.33301 133.333 68 200.333 200 201z" />
    <glyph glyph-name="numbersign" unicode="#" 
 />
    <glyph glyph-name="dollar" unicode="$" 
 />
    <glyph glyph-name="percent" unicode="%" horiz-adv-x="1821" 
 />
    <glyph glyph-name="ampersand" unicode="&#x26;" horiz-adv-x="1366" 
 />
    <glyph glyph-name="quotesingle" unicode="'" horiz-adv-x="602" 
d="M200 1603c132.667 0 199.333 -66.667 200 -200v-301c0 -134.667 -66.667 -201.667 -200 -201c-133.333 0 -200 66 -200 198v303c1.33301 133.333 68 200.333 200 201z" />
    <glyph glyph-name="parenleft" unicode="(" horiz-adv-x="682" 
 />
    <glyph glyph-name="parenright" unicode=")" horiz-adv-x="682" 
 />
    <glyph glyph-name="asterisk" unicode="*" horiz-adv-x="797" 
 />
    <glyph glyph-name="plus" unicode="+" horiz-adv-x="1196" 
 />
    <glyph glyph-name="comma" unicode="," horiz-adv-x="602" 
d="M200 400c132.667 0 199.333 -66.667 200 -200v-300c0 -134.667 -66.667 -201.667 -200 -201c-133.333 0 -200 66 -200 198v302c1.33301 134 68 201 200 201z" />
    <glyph glyph-name="hyphen" unicode="-" horiz-adv-x="1000" 
d="M2 795c1.33301 133.333 67.333 201 198 203h402c133.333 -1.33301 201 -68.333 203 -201c-2.66699 -133.333 -70 -200 -202 -200h-402c-132 -0.666992 -198.333 65.333 -199 198z" />
    <glyph glyph-name="hyphen" unicode="&#xad;" horiz-adv-x="1000" 
d="M2 795c1.33301 133.333 67.333 201 198 203h402c133.333 -1.33301 201 -68.333 203 -201c-2.66699 -133.333 -70 -200 -202 -200h-402c-132 -0.666992 -198.333 65.333 -199 198z" />
    <glyph glyph-name="period" unicode="." horiz-adv-x="598" 
d="M200 399c33.333 0 65.833 -8.66699 97.5 -26s56.5 -41.833 74.5 -73.5s27 -65.167 27 -100.5c0 -34 -8.83301 -66.833 -26.5 -98.5s-42.167 -56.167 -73.5 -73.5s-64.333 -26 -99 -26s-67.834 8.66699 -99.501 26s-56.167 41.833 -73.5 73.5s-26 64.5 -26 98.5
c0 35.333 8.83301 68.833 26.5 100.5s42.334 56.167 74.001 73.5s64.5 26 98.5 26z" />
    <glyph glyph-name="slash" unicode="/" horiz-adv-x="569" 
 />
    <glyph glyph-name="zero" unicode="0" horiz-adv-x="1801" 
d="M799 1599c134.667 0 265.83 -34.5 393.497 -103.5s227.667 -167.667 300 -296s108.5 -262.166 108.5 -401.499c0 -138.667 -35.167 -271.5 -105.5 -398.5s-169.166 -225.667 -296.499 -296s-260.666 -105.5 -399.999 -105.5c-138 0 -270.667 35.167 -398 105.5
s-226.166 169 -296.499 296s-105.5 259.833 -105.5 398.5c0 139.333 35.667 273.166 107 401.499s170.833 227 298.5 296s259.167 103.5 394.5 103.5zM603.496 1149.5c-63.667 -34.333 -113.5 -83.666 -149.5 -147.999s-54 -131.5 -54 -201.5
c0 -69.333 17.667 -135.666 53 -198.999s84.833 -112.666 148.5 -147.999s130.167 -53 199.5 -53s135.833 17.667 199.5 53s113.167 84.666 148.5 147.999s53 129.666 53 198.999c0 70 -18 137.167 -54 201.5s-86 113.666 -150 147.999s-129.667 51.5 -197 51.5
c-68 0 -133.833 -17.167 -197.5 -51.5zM798.996 996c33.333 0 65.833 -8.66699 97.5 -26s56.5 -41.833 74.5 -73.5s27 -65.167 27 -100.5c0 -34 -8.83301 -66.833 -26.5 -98.5s-42.167 -56.167 -73.5 -73.5s-64.333 -26 -99 -26s-67.834 8.66699 -99.501 26
s-56.167 41.833 -73.5 73.5s-26 64.5 -26 98.5c0 35.333 8.83301 68.833 26.5 100.5s42.334 56.167 74.001 73.5s64.5 26 98.5 26z" />
    <glyph glyph-name="one" unicode="1" horiz-adv-x="1201" 
d="M0 202c0 134 66.6689 201 200.002 201h103l-1 796c-132 -2 -197.333 64.333 -196 199c1.33301 128.667 67.333 195 198 199h201c130.667 1.33301 196.667 -63.667 198 -195l-1 -999h101c134.667 -2 202 -71 202 -207c-0.666992 -127.333 -63.334 -192 -188.001 -194
l-617 -2c-132.667 2.66699 -199.334 70 -200.001 202z" />
    <glyph glyph-name="two" unicode="2" horiz-adv-x="1600" 
d="M1402 799c0.666992 -133.333 -66 -199.666 -200 -198.999l-801 1c1.33301 -134 101 -201.333 299 -202l503 2c130.667 -0.666992 197 -67.667 199 -201c-0.666992 -134 -67.334 -200.667 -200.001 -200h-499c-468 0.666992 -702.333 267.334 -703 800.001
c0.666992 132.667 67.334 199.334 200.001 200.001l801 -1c0 133.333 -98.667 199.666 -296 198.999h-503c-132 3.33301 -199.333 70.666 -202 201.999c3.33301 133.333 70.666 199.666 201.999 198.999h499c466.667 0.666992 700.334 -266 701.001 -800z" />
    <glyph glyph-name="three" unicode="3" horiz-adv-x="1600" 
d="M200 1599l700 -0.00195312c132.667 0 249.5 -50 350.5 -150s150.833 -216.833 149.5 -350.5s-36 -232.5 -104 -296.5c70.667 -69.333 105.5 -169.833 104.5 -301.5s-51.667 -248 -152 -349s-212.5 -151.5 -336.5 -151.5h-714c-132 -1.33301 -198 65.334 -198 200.001
c0 131.333 66.667 197 200 197l698 4c67.333 0 101 33 101 99c0 67.333 -33 101 -99 101l-303 1c-134.667 0 -201.667 70.333 -201 211c0 126 66.667 188.333 200 187l304 -1c66.667 0 99 36.667 97 110c2 58.667 -30.333 88.334 -97 89.001h-700
c-133.333 0 -200 67 -200 201c0 132 66.667 198.667 200 200z" />
    <glyph glyph-name="four" unicode="4" horiz-adv-x="1600" 
d="M201 -1c-34 0 -66.8359 8.49902 -98.5029 25.499s-56.5 41.5 -74.5 73.5s-27 65.667 -27 101c0 34.667 64.333 181.667 193 441s201.667 404.833 219 436.5s42 56.334 74 74.001s65.333 26.5 100 26.5s67.834 -8.83301 99.501 -26.5s56.334 -42.334 74.001 -74.001
s27.334 -67.167 29.001 -106.5s-86.833 -228.666 -265.5 -567.999h474l-1 1004c0 130 67 195.667 201 197c134 -1.33301 201.667 -67 203 -197l-2 -1605c0 -131.333 -67 -199 -201 -203c-133.333 4.66699 -200 72 -200 202v199h-797z" />
    <glyph glyph-name="five" unicode="5" horiz-adv-x="1600" 
d="M202 1599l998.001 0.00195312c131.333 0.666992 198.666 -65.666 201.999 -198.999c-2.66699 -131.333 -70 -198.666 -202 -201.999h-801l-3 -202l806 4c132.667 -0.666992 199.334 -67.334 200.001 -200.001c-0.666992 -532.667 -235 -799.334 -703 -800.001h-499
c-132.667 -0.666992 -199.334 66 -200.001 200c2 133.333 68.333 200.333 199 201l503 -2c198 0.666992 297.667 68 299 202l-801 -1c-134 -0.666992 -200.667 65.666 -200 198.999l-1 601c1.33301 133.333 69 199.666 203 198.999z" />
    <glyph glyph-name="six" unicode="6" horiz-adv-x="1701" 
d="M500 1599l503 -0.000976562c132 -0.666992 198.333 -67 199 -199c1.33301 -132.667 -64.334 -199.334 -197.001 -200.001h-505c-67.333 -1.33301 -101 -35 -101 -101l1 -100l500 1c134.667 -1.33301 252.167 -52.166 352.5 -152.499s149.833 -216.666 148.5 -348.999
s-51.166 -248.5 -149.499 -348.5s-214.833 -149.333 -349.5 -148l-402 -1c-132.667 0 -249 49.667 -349 149s-150.333 216.666 -151 351.999v603c0 128.667 50.167 243.334 150.5 344.001s216.833 150.667 349.5 150zM401 599.999l-0.000976562 -98.999
c0.666992 -68 33.667 -102 99 -102h404c67.333 1.33301 101 35 101 101c0.666992 67.333 -33.666 100.666 -102.999 99.999h-501z" />
    <glyph glyph-name="seven" unicode="7" horiz-adv-x="1601" 
d="M1203 1597c33.333 0 65.3359 -7.99805 96.0029 -23.998s55 -40 73 -72s27 -65.333 27 -100s-100.167 -252.5 -300.5 -653.5s-309.333 -617.167 -327 -648.5s-42.334 -55.833 -74.001 -73.5s-64.834 -26.5 -99.501 -26.5s-68 8.83301 -100 26.5s-56.667 42.167 -74 73.5
s-26.333 63.666 -27 96.999c0 30 160 364 480 1002h-675c-134 2 -201 68.667 -201 200c-0.666992 133.333 65.666 199.666 198.999 198.999h1003z" />
    <glyph glyph-name="eight" unicode="8" horiz-adv-x="1600" 
d="M898 401c67.333 0 101 33 101 99c0 67.333 -33 101 -99 101h-402c-67.333 0 -101 -33.333 -101 -100c2 -69.333 35.667 -103.333 101 -102zM498 1599l402.002 -0.00195312c132.667 0 249.5 -50 350.5 -150s150.833 -216.833 149.5 -350.5s-36 -232.5 -104 -296.5
c70.667 -69.333 105.5 -169.833 104.5 -301.5s-51.667 -248 -152 -349s-212.5 -151.5 -336.5 -151.5h-413c-132 -1.33301 -248.167 48.5 -348.5 149.5s-150.5 217.833 -150.5 350.5s33.667 232.334 101 299.001c-66.667 66 -100.334 166.667 -101.001 302
c0 130.667 50.167 245.334 150.5 344.001s216.166 150 347.499 154zM900.002 998.998c66.667 0 99 36.666 97 109.999c2 58.667 -30.333 88.334 -97 89.001h-402c-66.667 0 -100 -33 -100 -99c0 -66.667 33.333 -100 100 -100h402z" />
    <glyph glyph-name="nine" unicode="9" horiz-adv-x="1701" 
d="M901 1l-503.001 0.000976562c-132 0.666992 -198.333 66.667 -199 198c-1.33301 133.333 64.334 200.333 197.001 201h505c67.333 1.33301 101 35 101 101l-1 99h-500c-134.667 1.33301 -252 52.166 -352 152.499s-149.5 216.666 -148.5 348.999
s50.667 248.666 149 348.999s214.833 149.5 349.5 147.5l402 1c132.667 0 249.167 -49.667 349.5 -149s150.5 -216.666 150.5 -351.999v-604c0 -128.667 -50.167 -243.167 -150.5 -343.5s-216.833 -150.166 -349.5 -149.499zM999.999 1000l-0.000976562 98.999
c0 68 -32.667 102 -98 102h-405c-67.333 -1.33301 -100.666 -35 -99.999 -101c-0.666992 -67.333 33.333 -100.666 102 -99.999h501z" />
    <glyph glyph-name="colon" unicode=":" horiz-adv-x="598" 
d="M200 998c33.333 0 65.833 -8.66699 97.5 -26s56.5 -41.833 74.5 -73.5s27 -65.167 27 -100.5c0 -34 -8.83301 -66.833 -26.5 -98.5s-42.167 -56.167 -73.5 -73.5s-64.333 -26 -99 -26s-67.834 8.66699 -99.501 26s-56.167 41.833 -73.5 73.5s-26 64.5 -26 98.5
c0 35.333 8.83301 68.833 26.5 100.5s42.334 56.167 74.001 73.5s64.5 26 98.5 26zM200 399c33.333 0 65.833 -8.66699 97.5 -26s56.5 -41.833 74.5 -73.5s27 -65.167 27 -100.5c0 -34 -8.83301 -66.833 -26.5 -98.5s-42.167 -56.167 -73.5 -73.5s-64.333 -26 -99 -26
s-67.834 8.66699 -99.501 26s-56.167 41.833 -73.5 73.5s-26 64.5 -26 98.5c0 35.333 8.83301 68.833 26.5 100.5s42.334 56.167 74.001 73.5s64.5 26 98.5 26z" />
    <glyph glyph-name="semicolon" unicode=";" horiz-adv-x="602" 
d="M200 400c132.667 0 199.333 -66.667 200 -200v-300c0 -134.667 -66.667 -201.667 -200 -201c-133.333 0 -200 66 -200 198v302c1.33301 134 68 201 200 201zM199.999 998c33.333 0 65.833 -8.66699 97.5 -26s56.5 -41.833 74.5 -73.5s27 -65.167 27 -100.5
c0 -34 -8.83301 -66.833 -26.5 -98.5s-42.167 -56.167 -73.5 -73.5s-64.333 -26 -99 -26s-67.834 8.66699 -99.501 26s-56.167 41.833 -73.5 73.5s-26 64.5 -26 98.5c0 35.333 8.83301 68.833 26.5 100.5s42.334 56.167 74.001 73.5s64.5 26 98.5 26z" />
    <glyph glyph-name="semicolon" unicode="&#x37e;" horiz-adv-x="602" 
d="M200 400c132.667 0 199.333 -66.667 200 -200v-300c0 -134.667 -66.667 -201.667 -200 -201c-133.333 0 -200 66 -200 198v302c1.33301 134 68 201 200 201zM199.999 998c33.333 0 65.833 -8.66699 97.5 -26s56.5 -41.833 74.5 -73.5s27 -65.167 27 -100.5
c0 -34 -8.83301 -66.833 -26.5 -98.5s-42.167 -56.167 -73.5 -73.5s-64.333 -26 -99 -26s-67.834 8.66699 -99.501 26s-56.167 41.833 -73.5 73.5s-26 64.5 -26 98.5c0 35.333 8.83301 68.833 26.5 100.5s42.334 56.167 74.001 73.5s64.5 26 98.5 26z" />
    <glyph glyph-name="less" unicode="&#x3c;" horiz-adv-x="1196" 
 />
    <glyph glyph-name="equal" unicode="=" horiz-adv-x="1196" 
 />
    <glyph glyph-name="greater" unicode="&#x3e;" horiz-adv-x="1196" 
 />
    <glyph glyph-name="question" unicode="?" horiz-adv-x="1398" 
d="M1198 1097c0.666992 -332 -168 -497.334 -506 -496.001c-63.333 0 -96.666 -35 -99.999 -105c0 -133.333 -66 -198.666 -198 -195.999c-134.667 -2 -201.334 65.333 -200.001 202c0.666992 132.667 51 248.834 151 348.501s216.667 148.167 350 145.5
c68 2 102 36.333 102 103s-33 99.667 -99 99h-496c-132 3.33301 -199.333 70.666 -202 201.999c3.33301 133.333 70.666 199.666 201.999 198.999h295c466.667 0.666992 700.334 -166.666 701.001 -501.999zM399 196.999c33.333 0 65.833 -8.66699 97.5 -26
s56.5 -41.833 74.5 -73.5s27 -64.834 27 -99.501c0 -34 -8.83301 -66.833 -26.5 -98.5s-42.167 -56.167 -73.5 -73.5s-64.333 -26 -99 -26s-67.834 8.66699 -99.501 26s-56.167 41.833 -73.5 73.5s-26 64.5 -26 98.5c0 34.667 8.83301 67.834 26.5 99.501
s42.334 56.167 74.001 73.5s64.5 26 98.5 26z" />
    <glyph glyph-name="at" unicode="@" horiz-adv-x="2079" 
 />
    <glyph glyph-name="A" unicode="A" horiz-adv-x="1799" 
d="M201 -1c-34 0 -66.834 8.5 -98.501 25.5s-56.5 41.5 -74.5 73.5s-27 65.667 -27 101c0 34.667 99.667 252.334 299 653.001s307.666 616.834 324.999 648.501s42 56.334 74 74.001s65.333 26.5 100 26.5s67.834 -8.83301 99.501 -26.5s56.334 -42.334 74.001 -74.001
s126.667 -247.834 327 -648.501s300.5 -618.334 300.5 -653.001c0 -35.333 -9 -69 -27 -101s-43 -56.5 -75 -73.5s-64.667 -25.5 -98 -25.5h-1199zM1073 402l-274 563l-275 -563h549z" />
    <glyph glyph-name="B" unicode="B" horiz-adv-x="1600" 
d="M200 1599l700 -0.000976562c132.667 0 249.5 -50 350.5 -150s150.833 -216.833 149.5 -350.5s-36 -232.5 -104 -296.5c70.667 -69.333 105.5 -169.833 104.5 -301.5s-51.667 -248 -152 -349s-212.5 -151.5 -336.5 -151.5h-714c-132 -1.33301 -198 65.334 -198 200.001
v1199c0 132 66.667 198.667 200 200zM401 1198v-797.001h497c67.333 0 101 33 101 99c0 67.333 -33 101 -99 101l-99 1c-134.667 0 -201.667 70.333 -201 211c0 126 66.667 188.333 200 187l100 -1c66.667 0 99 36.667 97 110c2 58.667 -30.333 88.334 -97 89.001h-499z" />
    <glyph glyph-name="C" unicode="C" horiz-adv-x="1599" 
d="M799 1599l400.999 -1c132.667 -2 199.334 -68 200.001 -198c-0.666992 -134.667 -67.667 -201.667 -201 -201l-399 -1c-266 2 -399 -131 -399 -399c0 -265.333 133.333 -398.666 400 -399.999h398c133.333 -2.66699 200 -68.667 200 -198
c0 -133.333 -66 -200.333 -198 -201h-400c-533.333 0 -800.333 266.667 -801 800c-0 533.333 266.333 799.666 799 798.999z" />
    <glyph glyph-name="D" unicode="D" horiz-adv-x="1801" 
d="M200 1599l600 -0.000976562c534 -0.666992 801 -267.334 801 -800.001c-0.666992 -531.333 -260.667 -797.666 -780 -798.999h-621c-133.333 -1.33301 -200 65.334 -200 200.001v1199c0 132 66.667 198.667 200 200zM401 1198v-797h401
c265.333 -2 397.333 131.667 396 401c1.33301 262.667 -131 394.667 -397 396h-400z" />
    <glyph glyph-name="E" unicode="E" horiz-adv-x="1599" 
d="M200 1601l1012 -2.00098c124.667 -2 187.334 -66.667 188.001 -194c0 -136 -67.333 -205 -202 -207h-797v-797h795c134.667 -0.666992 202 -68 202 -202c-0.666992 -131.333 -66.667 -197.666 -198 -198.999h-1000c-132.667 0 -199.334 64.667 -200.001 194v1205
c0.666992 132 67.334 199.333 200.001 202zM496.999 794.999c1.33301 133.333 67.333 201 198 203h402c133.333 -1.33301 201 -68.333 203 -201c-2.66699 -133.333 -70 -200 -202 -200h-402c-132 -0.666992 -198.333 65.333 -199 198z" />
    <glyph glyph-name="F" unicode="F" horiz-adv-x="1599" 
d="M200 1601l1012 -2.00098c124.667 -2 187.334 -66.667 188.001 -194c0 -136 -67.333 -205 -202 -207h-797v-198h800c132 -2 198.333 -68.667 199 -200c-2 -133.333 -68.333 -200 -199 -200l-800 -1v-400c-0.666992 -131.333 -67.667 -197.666 -201 -198.999
c-132.667 0 -199.334 64.667 -200.001 194v1205c0.666992 132 67.334 199.333 200.001 202z" />
    <glyph glyph-name="G" unicode="G" horiz-adv-x="1801" 
d="M799 1599l401.997 0.999023c130.667 -0.666992 196.667 -68 198 -202c-1.33301 -132 -67 -197 -197 -195l-401 -2c-68 0 -133.833 -17.167 -197.5 -51.5s-113.5 -83.666 -149.5 -147.999s-54 -131.5 -54 -201.5c0 -69.333 17.667 -135.666 53 -198.999
s84.833 -112.666 148.5 -147.999s130.167 -53 199.5 -53s139.5 16.5 210.5 49.5s122.5 84.167 154.5 153.5h-167c-134.667 -0.666992 -202.334 64.666 -203.001 195.999c0 133.333 66.667 201 200 203l402 -2c134.667 -2.66699 202.334 -70 203.001 -202
c0 -138.667 -35.167 -271.5 -105.5 -398.5s-169.166 -225.667 -296.499 -296s-260.666 -105.5 -399.999 -105.5c-138 0 -270.667 35.167 -398 105.5s-226.166 169 -296.499 296s-105.5 259.833 -105.5 398.5c0 139.333 35.667 273.166 107 401.499s170.833 227 298.5 296
s259.167 103.5 394.5 103.5z" />
    <glyph glyph-name="H" unicode="H" horiz-adv-x="1601" 
d="M1400 1401l-1.00195 -1201c0 -134.667 -67 -201.334 -201 -200.001c-133.333 -0.666992 -199.666 65.333 -198.999 198v403l-294 -1c-136.667 0 -206 66.333 -208 199c0.666992 134 70 200.667 208 200l294 3v399c0 134.667 67 202 201 202
c132.667 0 199.334 -67.333 200.001 -202zM400.998 1400l-1.00098 -1200c-0.666992 -132 -67.667 -198.667 -201 -200c-133.333 0.666992 -199.666 67 -198.999 199v1200c0 133.333 66.667 200.666 200 201.999c134 -0.666992 201 -67.667 201 -201z" />
    <glyph glyph-name="I" unicode="I" horiz-adv-x="598" 
d="M198 1599c133.333 -1.33301 201 -67.333 203 -198v-1202c-1.33301 -133.333 -68.333 -201 -201 -203c-133.333 2.66699 -200 70 -200 202v1202c-0.666992 132 65.333 198.333 198 199z" />
    <glyph glyph-name="J" unicode="J" horiz-adv-x="896" 
d="M702 1399v-903.998c-0.666992 -196 -34 -327.5 -100 -394.5s-198.667 -100.5 -398 -100.5c-132.667 1.33301 -199.334 67.666 -200.001 198.999c0 134 66.667 201.333 200 202c65.333 -1.33301 97.333 31 96 97l-1 907c1.33301 127.333 69 192.666 203 195.999
c132.667 -2.66699 199.334 -70 200.001 -202z" />
    <glyph glyph-name="K" unicode="K" horiz-adv-x="1601" 
d="M1350.5 1552.5c35 -33.667 51.4971 -84.167 49.4971 -151.5c0 -70.667 -35.333 -137 -106 -199l-366 -401l367 -398c75.333 -70 110 -137.667 104 -203c3.33301 -67.333 -13.167 -117.833 -49.5 -151.5s-86.833 -49.834 -151.5 -48.501
c-68.667 -0.666992 -120.167 16.5 -154.5 51.5s-116.666 131 -246.999 288l-246 295c-33.667 39.667 -51.5 94.5 -53.5 164.5c0.666992 64.667 18.167 118.334 52.5 161.001l250.5 304.5c132.667 160.333 215.834 256.833 249.501 289.5s83.834 49 150.501 49
c65.333 0 115.5 -16.833 150.5 -50.5zM400.997 1400l-1.00098 -1200c-0.666992 -132 -67.667 -198.667 -201 -200c-133.333 0.666992 -199.666 67 -198.999 199v1200c0 133.333 66.667 200.666 200 201.999c134 -0.666992 201 -67.667 201 -201z" />
    <glyph glyph-name="L" unicode="L" horiz-adv-x="1599" 
d="M200 1601c134 -3.33301 201.667 -68.668 203 -196.001l-2 -1004h795c134.667 -0.666992 202 -68 202 -202c-0.666992 -131.333 -66.667 -197.666 -198 -198.999h-1000c-132.667 0 -199.334 64.667 -200.001 194v1205c0.666992 132 67.334 199.333 200.001 202z" />
    <glyph glyph-name="M" unicode="M" horiz-adv-x="1801" 
d="M199 1599c67.333 -1.33301 117 -18.333 149 -51l453 -452l450 451.5c33.333 34.333 83 51.5 149 51.5c132.667 -0.666992 199.334 -67 200.001 -199l1 -1200c0 -132.667 -67.333 -200 -202 -202c-132 0.666992 -199 68 -201 202v707l-250.5 -257.5
c-33 -33.667 -82.5 -50.5 -148.5 -50.5c-64 0 -113.167 17.333 -147.5 52l-251.5 252v-703c-0.666992 -132 -67.334 -198.667 -200.001 -200c-134 -0.666992 -200.667 66 -200 200v1200c-0 132.667 66.333 199 199 199z" />
    <glyph glyph-name="N" unicode="N" horiz-adv-x="1600" 
d="M228 1597c72.667 -5.33301 130.667 -32.667 174 -82l599 -764v671c2.66699 114.667 59.334 173 170.001 175c150 -2 225.667 -61.667 227 -179l2 -1244c-1.33301 -114.667 -77.666 -172.667 -228.999 -174c-68.667 0.666992 -124.334 28 -167.001 82l-602 762v-670
c-0.666992 -115.333 -58.667 -173.333 -174 -174c-150.667 -0.666992 -226.334 58 -227.001 176v1247c-0.666992 115.333 75 173.333 227 174z" />
    <glyph glyph-name="O" unicode="O" horiz-adv-x="1801" 
d="M799 1599c134.667 0 265.83 -34.5 393.497 -103.5s227.667 -167.667 300 -296s108.5 -262.166 108.5 -401.499c0 -138.667 -35.167 -271.5 -105.5 -398.5s-169.166 -225.667 -296.499 -296s-260.666 -105.5 -399.999 -105.5c-138 0 -270.667 35.167 -398 105.5
s-226.166 169 -296.499 296s-105.5 259.833 -105.5 398.5c0 139.333 35.667 273.166 107 401.499s170.833 227 298.5 296s259.167 103.5 394.5 103.5zM603.496 1149.5c-63.667 -34.333 -113.5 -83.666 -149.5 -147.999s-54 -131.5 -54 -201.5
c0 -69.333 17.667 -135.666 53 -198.999s84.833 -112.666 148.5 -147.999s130.167 -53 199.5 -53s135.833 17.667 199.5 53s113.167 84.666 148.5 147.999s53 129.666 53 198.999c0 70 -18 137.167 -54 201.5s-86 113.666 -150 147.999s-129.667 51.5 -197 51.5
c-68 0 -133.833 -17.167 -197.5 -51.5z" />
    <glyph glyph-name="P" unicode="P" horiz-adv-x="1601" 
d="M200 1599l701.999 0.00195312c128.667 0 243.834 -49.333 345.501 -148s152.167 -215.334 151.5 -350.001c0 -138 -49.833 -256 -149.5 -354s-217.834 -147 -354.501 -147l-197 -2c-132 -0.666992 -198.333 66.666 -199 201.999c0 134.667 67.333 201.667 202 201l142 1
c105.333 -1.33301 157.333 31 156 97c0 66 -52.333 99 -157 99h-145h-296v-998c0.666992 -133.333 -66.333 -200 -201 -200c-134 -0.666992 -200.667 65.333 -200 198v1203c0.666992 130.667 67.334 196.667 200.001 198z" />
    <glyph glyph-name="Q" unicode="Q" horiz-adv-x="1801" 
d="M799 1599c134.667 0 265.831 -34.5 393.498 -103.5s227.667 -167.667 300 -296s108.5 -262.166 108.5 -401.499c0 -138.667 -53.667 -271.667 -161 -399c104.667 0.666992 159.334 -66 164.001 -200c0 -134 -67.333 -201 -202 -201h-603
c-138 0 -270.667 35.167 -398 105.5s-226.166 169 -296.499 296s-105.5 259.833 -105.5 398.5c0 139.333 35.667 273.166 107 401.499s170.833 227 298.5 296s259.167 103.5 394.5 103.5zM603.497 1149.5c-63.667 -34.333 -113.5 -83.666 -149.5 -147.999
s-54 -131.5 -54 -201.5c0 -69.333 17.667 -135.666 53 -198.999s84.833 -112.666 148.5 -147.999s130.167 -53 199.5 -53s135.833 17.667 199.5 53s113.167 84.666 148.5 147.999s53 129.666 53 198.999c0 70 -18 137.167 -54 201.5s-86 113.666 -150 147.999
s-129.667 51.5 -197 51.5c-68 0 -133.833 -17.167 -197.5 -51.5z" />
    <glyph glyph-name="R" unicode="R" horiz-adv-x="1601" 
d="M200 1599l701.997 -0.000976562c130.667 0 246.334 -50.5 347.001 -151.5s150.667 -216.5 150 -346.5c0 -138 -25.167 -254.5 -75.5 -349.5s-126.166 -144.167 -227.499 -147.5l247 -250c39.333 -39.333 59 -91 59 -155c-2 -133.333 -68.667 -199.666 -200 -198.999
c-68 -2 -135 30.667 -201 98l-400 496c-67.333 71.333 -101.333 140 -102 206c0 134.667 67.333 201.667 202 201l142 1c105.333 -1.33301 157.333 31 156 97c0 66 -52.333 99 -157 99h-145h-296v-998c0.666992 -133.333 -66.333 -200 -201 -200
c-134 -0.666992 -200.667 65.333 -200 198v1203c0.666992 130.667 67.334 196.667 200.001 198z" />
    <glyph glyph-name="S" unicode="S" horiz-adv-x="1598" 
d="M1403 1399c0 -133.333 -64.334 -200.334 -193.001 -201.001l-609 1c-134.667 -1.33301 -202.667 -35.333 -204 -102c2 -63.333 70.333 -94.666 205 -93.999h197c402 -1.33301 604 -170.333 606 -507c0 -327.333 -201.667 -492 -605 -494h-601
c-133.333 0.666992 -199.666 66 -198.999 196c0.666992 132.667 66.334 198.334 197.001 197.001l603 3c134.667 0.666992 202 35 202 103s-68 101.667 -204 101h-197c-400.667 0.666992 -601 165.667 -601 495c-2.66699 334 197.666 501.333 600.999 502h602
c132 -0.666992 198.667 -67.334 200 -200.001z" />
    <glyph glyph-name="T" unicode="T" horiz-adv-x="1599" 
d="M200 1601l1012 -2.00098c124.667 -2 187.334 -66.667 188.001 -194c0 -136 -67.333 -205 -202 -207h-299l1 -999c-1.33301 -131.333 -68.333 -197.666 -201 -198.999c-133.333 0 -200 64.667 -200 194l1 1004h-300c-133.333 0 -200 67 -200 201
c0.666992 132 67.334 199.333 200.001 202z" />
    <glyph glyph-name="U" unicode="U" horiz-adv-x="1600" 
d="M204 1601c133.333 0 200.333 -64.333 201 -193l-1 -609c1.33301 -266.667 102.666 -400.667 303.999 -402c200 2 299.667 136.333 299 403v601c1.33301 132.667 68.333 200 201 202c132.667 -4 199.334 -71.667 200.001 -203v-601
c-0.666992 -532.667 -234 -799 -700 -799c-468.667 -3.33301 -703.334 263 -704.001 799v602c0.666992 132 67.334 198.667 200.001 200z" />
    <glyph glyph-name="V" unicode="V" horiz-adv-x="1799" 
d="M1400 1601c33.333 0 66.001 -8.66699 98.001 -26s57 -42 75 -74s27 -65.333 27 -100s-100.167 -252.5 -300.5 -653.5s-309.333 -617.167 -327 -648.5s-42.334 -55.833 -74.001 -73.5s-64.834 -26.5 -99.501 -26.5s-68 8.83301 -100 26.5s-56.667 42.167 -74 73.5
s-125.666 247.5 -324.999 648.5s-299 618.833 -299 653.5s9 68 27 100s42.833 56.667 74.5 74s64.5 26 98.5 26c33.333 0 66 -8.66699 98 -26s57 -42 75 -74s159.667 -321 425 -867c267.333 546 410 835 428 867s42.833 56.667 74.5 74s64.5 26 98.5 26z" />
    <glyph glyph-name="W" unicode="W" horiz-adv-x="1801" 
d="M0 197v1200c-0.666992 134.667 66 201.334 200 200.001c132.667 -1.33301 199.334 -68 200.001 -200v-703l251.5 252c34.333 34.667 83.5 52 147.5 52c66 0 115.5 -16.833 148.5 -50.5l250.5 -257.5v707c2 134 69 201.333 201 202c134.667 -2 202 -69.333 202 -202
l-1 -1200c-0.666992 -132 -67.334 -198.333 -200.001 -199c-66 0 -115.667 17.167 -149 51.5l-450 451.5l-453 -452c-32 -32.667 -81.667 -49.667 -149 -51c-132.667 0 -199 66.333 -199 199z" />
    <glyph glyph-name="X" unicode="X" horiz-adv-x="1601" 
d="M201 1603c66.667 0 116.831 -16.332 150.498 -48.999s152.167 -172 355.5 -418c206.667 250 326.834 391.167 360.501 423.5s83.834 48.5 150.501 48.5c65.333 0 115.5 -16.833 150.5 -50.5s51.5 -84.167 49.5 -151.5c0 -70.667 -35.333 -136.667 -106 -198l-340 -402
l341 -397c75.333 -70.667 110 -138.667 104 -204c3.33301 -67.333 -13.167 -117.833 -49.5 -151.5s-86.833 -49.834 -151.5 -48.501c-68.667 -0.666992 -120.167 16.666 -154.5 51.999s-150.833 173.333 -349.5 414c-202 -244.667 -320.167 -384.5 -354.5 -419.5
s-85.833 -52.167 -154.5 -51.5c-64.667 -1.33301 -115.167 14.834 -151.5 48.501s-52.833 84.167 -49.5 151.5c-6 65.333 28.667 133 104 203l356 398l-355 401c-70.667 62 -106 128.333 -106 199c-2 67.333 14.5 117.833 49.5 151.5s85.167 50.5 150.5 50.5z" />
    <glyph glyph-name="Y" unicode="Y" horiz-adv-x="1601" 
d="M201 1603c66.667 0 116.831 -16.333 150.498 -49s152.167 -172 355.5 -418c206.667 250 326.834 391.167 360.501 423.5s83.834 48.5 150.501 48.5c65.333 0 115.5 -16.833 150.5 -50.5s51.5 -84.167 49.5 -151.5c0 -70.667 -35.333 -136.667 -106 -198l-409 -478
l-1 -531c-2.66699 -130.667 -69.667 -197 -201 -199c-132 -3.33301 -198 65 -198 205l-2 527l-394 470c-70.667 62 -106 128.333 -106 199c-2 67.333 14.5 117.833 49.5 151.5s85.167 50.5 150.5 50.5z" />
    <glyph glyph-name="Z" unicode="Z" horiz-adv-x="1600" 
d="M1401 1373c-5.33301 -72.667 -32.668 -130.667 -82.001 -174l-675 -800h582c114.667 -2.66699 173 -59.334 175 -170.001c-2 -150 -61.667 -225.667 -179 -227l-1047 -2c-114.667 1.33301 -173 77.666 -175 228.999c1.33301 68.667 29 124.334 83 167.001l679 803h-587
c-115.333 0.666992 -173.666 58.667 -174.999 174c-0.666992 150.667 58.333 226.334 177 227.001h1050c115.333 0.666992 173.333 -75 174 -227z" />
    <glyph glyph-name="bracketleft" unicode="[" horiz-adv-x="569" 
 />
    <glyph glyph-name="backslash" unicode="\" horiz-adv-x="569" 
 />
    <glyph glyph-name="bracketright" unicode="]" horiz-adv-x="569" 
 />
    <glyph glyph-name="asciicircum" unicode="^" horiz-adv-x="961" 
 />
    <glyph glyph-name="underscore" unicode="_" 
 />
    <glyph glyph-name="grave" unicode="`" horiz-adv-x="682" 
 />
    <glyph glyph-name="a" unicode="a" horiz-adv-x="1799" 
d="M201 -1c-34 0 -66.834 8.5 -98.501 25.5s-56.5 41.5 -74.5 73.5s-27 65.667 -27 101c0 34.667 99.667 252.334 299 653.001s307.666 616.834 324.999 648.501s42 56.334 74 74.001s65.333 26.5 100 26.5s67.834 -8.83301 99.501 -26.5s56.334 -42.334 74.001 -74.001
s126.667 -247.834 327 -648.501s300.5 -618.334 300.5 -653.001c0 -35.333 -9 -69 -27 -101s-43 -56.5 -75 -73.5s-64.667 -25.5 -98 -25.5h-1199zM1073 402l-274 563l-275 -563h549z" />
    <glyph glyph-name="b" unicode="b" horiz-adv-x="1600" 
d="M200 1599l700 -0.000976562c132.667 0 249.5 -50 350.5 -150s150.833 -216.833 149.5 -350.5s-36 -232.5 -104 -296.5c70.667 -69.333 105.5 -169.833 104.5 -301.5s-51.667 -248 -152 -349s-212.5 -151.5 -336.5 -151.5h-714c-132 -1.33301 -198 65.334 -198 200.001
v1199c0 132 66.667 198.667 200 200zM401 1198v-797.001h497c67.333 0 101 33 101 99c0 67.333 -33 101 -99 101l-99 1c-134.667 0 -201.667 70.333 -201 211c0 126 66.667 188.333 200 187l100 -1c66.667 0 99 36.667 97 110c2 58.667 -30.333 88.334 -97 89.001h-499z" />
    <glyph glyph-name="c" unicode="c" horiz-adv-x="1599" 
d="M799 1599l400.999 -1c132.667 -2 199.334 -68 200.001 -198c-0.666992 -134.667 -67.667 -201.667 -201 -201l-399 -1c-266 2 -399 -131 -399 -399c0 -265.333 133.333 -398.666 400 -399.999h398c133.333 -2.66699 200 -68.667 200 -198
c0 -133.333 -66 -200.333 -198 -201h-400c-533.333 0 -800.333 266.667 -801 800c-0 533.333 266.333 799.666 799 798.999z" />
    <glyph glyph-name="d" unicode="d" horiz-adv-x="1801" 
d="M200 1599l600 -0.000976562c534 -0.666992 801 -267.334 801 -800.001c-0.666992 -531.333 -260.667 -797.666 -780 -798.999h-621c-133.333 -1.33301 -200 65.334 -200 200.001v1199c0 132 66.667 198.667 200 200zM401 1198v-797h401
c265.333 -2 397.333 131.667 396 401c1.33301 262.667 -131 394.667 -397 396h-400z" />
    <glyph glyph-name="e" unicode="e" horiz-adv-x="1599" 
d="M200 1601l1012 -2.00098c124.667 -2 187.334 -66.667 188.001 -194c0 -136 -67.333 -205 -202 -207h-797v-797h795c134.667 -0.666992 202 -68 202 -202c-0.666992 -131.333 -66.667 -197.666 -198 -198.999h-1000c-132.667 0 -199.334 64.667 -200.001 194v1205
c0.666992 132 67.334 199.333 200.001 202zM496.999 794.999c1.33301 133.333 67.333 201 198 203h402c133.333 -1.33301 201 -68.333 203 -201c-2.66699 -133.333 -70 -200 -202 -200h-402c-132 -0.666992 -198.333 65.333 -199 198z" />
    <glyph glyph-name="f" unicode="f" horiz-adv-x="1599" 
d="M200 1601l1012 -2.00098c124.667 -2 187.334 -66.667 188.001 -194c0 -136 -67.333 -205 -202 -207h-797v-198h800c132 -2 198.333 -68.667 199 -200c-2 -133.333 -68.333 -200 -199 -200l-800 -1v-400c-0.666992 -131.333 -67.667 -197.666 -201 -198.999
c-132.667 0 -199.334 64.667 -200.001 194v1205c0.666992 132 67.334 199.333 200.001 202z" />
    <glyph glyph-name="g" unicode="g" horiz-adv-x="1801" 
d="M799 1599l401.997 0.999023c130.667 -0.666992 196.667 -68 198 -202c-1.33301 -132 -67 -197 -197 -195l-401 -2c-68 0 -133.833 -17.167 -197.5 -51.5s-113.5 -83.666 -149.5 -147.999s-54 -131.5 -54 -201.5c0 -69.333 17.667 -135.666 53 -198.999
s84.833 -112.666 148.5 -147.999s130.167 -53 199.5 -53s139.5 16.5 210.5 49.5s122.5 84.167 154.5 153.5h-167c-134.667 -0.666992 -202.334 64.666 -203.001 195.999c0 133.333 66.667 201 200 203l402 -2c134.667 -2.66699 202.334 -70 203.001 -202
c0 -138.667 -35.167 -271.5 -105.5 -398.5s-169.166 -225.667 -296.499 -296s-260.666 -105.5 -399.999 -105.5c-138 0 -270.667 35.167 -398 105.5s-226.166 169 -296.499 296s-105.5 259.833 -105.5 398.5c0 139.333 35.667 273.166 107 401.499s170.833 227 298.5 296
s259.167 103.5 394.5 103.5z" />
    <glyph glyph-name="h" unicode="h" horiz-adv-x="1601" 
d="M1400 1401l-1.00195 -1201c0 -134.667 -67 -201.334 -201 -200.001c-133.333 -0.666992 -199.666 65.333 -198.999 198v403l-294 -1c-136.667 0 -206 66.333 -208 199c0.666992 134 70 200.667 208 200l294 3v399c0 134.667 67 202 201 202
c132.667 0 199.334 -67.333 200.001 -202zM400.998 1400l-1.00098 -1200c-0.666992 -132 -67.667 -198.667 -201 -200c-133.333 0.666992 -199.666 67 -198.999 199v1200c0 133.333 66.667 200.666 200 201.999c134 -0.666992 201 -67.667 201 -201z" />
    <glyph glyph-name="i" unicode="i" horiz-adv-x="598" 
d="M198 1599c133.333 -1.33301 201 -67.333 203 -198v-1202c-1.33301 -133.333 -68.333 -201 -201 -203c-133.333 2.66699 -200 70 -200 202v1202c-0.666992 132 65.333 198.333 198 199z" />
    <glyph glyph-name="j" unicode="j" horiz-adv-x="896" 
d="M702 1399v-903.998c-0.666992 -196 -34 -327.5 -100 -394.5s-198.667 -100.5 -398 -100.5c-132.667 1.33301 -199.334 67.666 -200.001 198.999c0 134 66.667 201.333 200 202c65.333 -1.33301 97.333 31 96 97l-1 907c1.33301 127.333 69 192.666 203 195.999
c132.667 -2.66699 199.334 -70 200.001 -202z" />
    <glyph glyph-name="k" unicode="k" horiz-adv-x="1601" 
d="M1350.5 1552.5c35 -33.667 51.4971 -84.167 49.4971 -151.5c0 -70.667 -35.333 -137 -106 -199l-366 -401l367 -398c75.333 -70 110 -137.667 104 -203c3.33301 -67.333 -13.167 -117.833 -49.5 -151.5s-86.833 -49.834 -151.5 -48.501
c-68.667 -0.666992 -120.167 16.5 -154.5 51.5s-116.666 131 -246.999 288l-246 295c-33.667 39.667 -51.5 94.5 -53.5 164.5c0.666992 64.667 18.167 118.334 52.5 161.001l250.5 304.5c132.667 160.333 215.834 256.833 249.501 289.5s83.834 49 150.501 49
c65.333 0 115.5 -16.833 150.5 -50.5zM400.997 1400l-1.00098 -1200c-0.666992 -132 -67.667 -198.667 -201 -200c-133.333 0.666992 -199.666 67 -198.999 199v1200c0 133.333 66.667 200.666 200 201.999c134 -0.666992 201 -67.667 201 -201z" />
    <glyph glyph-name="l" unicode="l" horiz-adv-x="1599" 
d="M200 1601c134 -3.33301 201.667 -68.668 203 -196.001l-2 -1004h795c134.667 -0.666992 202 -68 202 -202c-0.666992 -131.333 -66.667 -197.666 -198 -198.999h-1000c-132.667 0 -199.334 64.667 -200.001 194v1205c0.666992 132 67.334 199.333 200.001 202z" />
    <glyph glyph-name="m" unicode="m" horiz-adv-x="1801" 
d="M199 1599c67.333 -1.33301 117 -18.333 149 -51l453 -452l450 451.5c33.333 34.333 83 51.5 149 51.5c132.667 -0.666992 199.334 -67 200.001 -199l1 -1200c0 -132.667 -67.333 -200 -202 -202c-132 0.666992 -199 68 -201 202v707l-250.5 -257.5
c-33 -33.667 -82.5 -50.5 -148.5 -50.5c-64 0 -113.167 17.333 -147.5 52l-251.5 252v-703c-0.666992 -132 -67.334 -198.667 -200.001 -200c-134 -0.666992 -200.667 66 -200 200v1200c-0 132.667 66.333 199 199 199z" />
    <glyph glyph-name="n" unicode="n" horiz-adv-x="1600" 
d="M228 1597c72.667 -5.33301 130.667 -32.667 174 -82l599 -764v671c2.66699 114.667 59.334 173 170.001 175c150 -2 225.667 -61.667 227 -179l2 -1244c-1.33301 -114.667 -77.666 -172.667 -228.999 -174c-68.667 0.666992 -124.334 28 -167.001 82l-602 762v-670
c-0.666992 -115.333 -58.667 -173.333 -174 -174c-150.667 -0.666992 -226.334 58 -227.001 176v1247c-0.666992 115.333 75 173.333 227 174z" />
    <glyph glyph-name="o" unicode="o" horiz-adv-x="1801" 
d="M799 1599c134.667 0 265.83 -34.5 393.497 -103.5s227.667 -167.667 300 -296s108.5 -262.166 108.5 -401.499c0 -138.667 -35.167 -271.5 -105.5 -398.5s-169.166 -225.667 -296.499 -296s-260.666 -105.5 -399.999 -105.5c-138 0 -270.667 35.167 -398 105.5
s-226.166 169 -296.499 296s-105.5 259.833 -105.5 398.5c0 139.333 35.667 273.166 107 401.499s170.833 227 298.5 296s259.167 103.5 394.5 103.5zM603.496 1149.5c-63.667 -34.333 -113.5 -83.666 -149.5 -147.999s-54 -131.5 -54 -201.5
c0 -69.333 17.667 -135.666 53 -198.999s84.833 -112.666 148.5 -147.999s130.167 -53 199.5 -53s135.833 17.667 199.5 53s113.167 84.666 148.5 147.999s53 129.666 53 198.999c0 70 -18 137.167 -54 201.5s-86 113.666 -150 147.999s-129.667 51.5 -197 51.5
c-68 0 -133.833 -17.167 -197.5 -51.5z" />
    <glyph glyph-name="p" unicode="p" horiz-adv-x="1601" 
d="M200 1599l701.999 0.00195312c128.667 0 243.834 -49.333 345.501 -148s152.167 -215.334 151.5 -350.001c0 -138 -49.833 -256 -149.5 -354s-217.834 -147 -354.501 -147l-197 -2c-132 -0.666992 -198.333 66.666 -199 201.999c0 134.667 67.333 201.667 202 201l142 1
c105.333 -1.33301 157.333 31 156 97c0 66 -52.333 99 -157 99h-145h-296v-998c0.666992 -133.333 -66.333 -200 -201 -200c-134 -0.666992 -200.667 65.333 -200 198v1203c0.666992 130.667 67.334 196.667 200.001 198z" />
    <glyph glyph-name="q" unicode="q" horiz-adv-x="1801" 
d="M799 1599c134.667 0 265.831 -34.5 393.498 -103.5s227.667 -167.667 300 -296s108.5 -262.166 108.5 -401.499c0 -138.667 -53.667 -271.667 -161 -399c104.667 0.666992 159.334 -66 164.001 -200c0 -134 -67.333 -201 -202 -201h-603
c-138 0 -270.667 35.167 -398 105.5s-226.166 169 -296.499 296s-105.5 259.833 -105.5 398.5c0 139.333 35.667 273.166 107 401.499s170.833 227 298.5 296s259.167 103.5 394.5 103.5zM603.497 1149.5c-63.667 -34.333 -113.5 -83.666 -149.5 -147.999
s-54 -131.5 -54 -201.5c0 -69.333 17.667 -135.666 53 -198.999s84.833 -112.666 148.5 -147.999s130.167 -53 199.5 -53s135.833 17.667 199.5 53s113.167 84.666 148.5 147.999s53 129.666 53 198.999c0 70 -18 137.167 -54 201.5s-86 113.666 -150 147.999
s-129.667 51.5 -197 51.5c-68 0 -133.833 -17.167 -197.5 -51.5z" />
    <glyph glyph-name="r" unicode="r" horiz-adv-x="1601" 
d="M200 1599l701.997 -0.000976562c130.667 0 246.334 -50.5 347.001 -151.5s150.667 -216.5 150 -346.5c0 -138 -25.167 -254.5 -75.5 -349.5s-126.166 -144.167 -227.499 -147.5l247 -250c39.333 -39.333 59 -91 59 -155c-2 -133.333 -68.667 -199.666 -200 -198.999
c-68 -2 -135 30.667 -201 98l-400 496c-67.333 71.333 -101.333 140 -102 206c0 134.667 67.333 201.667 202 201l142 1c105.333 -1.33301 157.333 31 156 97c0 66 -52.333 99 -157 99h-145h-296v-998c0.666992 -133.333 -66.333 -200 -201 -200
c-134 -0.666992 -200.667 65.333 -200 198v1203c0.666992 130.667 67.334 196.667 200.001 198z" />
    <glyph glyph-name="s" unicode="s" horiz-adv-x="1598" 
d="M1403 1399c0 -133.333 -64.334 -200.334 -193.001 -201.001l-609 1c-134.667 -1.33301 -202.667 -35.333 -204 -102c2 -63.333 70.333 -94.666 205 -93.999h197c402 -1.33301 604 -170.333 606 -507c0 -327.333 -201.667 -492 -605 -494h-601
c-133.333 0.666992 -199.666 66 -198.999 196c0.666992 132.667 66.334 198.334 197.001 197.001l603 3c134.667 0.666992 202 35 202 103s-68 101.667 -204 101h-197c-400.667 0.666992 -601 165.667 -601 495c-2.66699 334 197.666 501.333 600.999 502h602
c132 -0.666992 198.667 -67.334 200 -200.001z" />
    <glyph glyph-name="t" unicode="t" horiz-adv-x="1599" 
d="M200 1601l1012 -2.00098c124.667 -2 187.334 -66.667 188.001 -194c0 -136 -67.333 -205 -202 -207h-299l1 -999c-1.33301 -131.333 -68.333 -197.666 -201 -198.999c-133.333 0 -200 64.667 -200 194l1 1004h-300c-133.333 0 -200 67 -200 201
c0.666992 132 67.334 199.333 200.001 202z" />
    <glyph glyph-name="u" unicode="u" horiz-adv-x="1600" 
d="M204 1601c133.333 0 200.333 -64.333 201 -193l-1 -609c1.33301 -266.667 102.666 -400.667 303.999 -402c200 2 299.667 136.333 299 403v601c1.33301 132.667 68.333 200 201 202c132.667 -4 199.334 -71.667 200.001 -203v-601
c-0.666992 -532.667 -234 -799 -700 -799c-468.667 -3.33301 -703.334 263 -704.001 799v602c0.666992 132 67.334 198.667 200.001 200z" />
    <glyph glyph-name="v" unicode="v" horiz-adv-x="1799" 
d="M1400 1601c33.333 0 66.001 -8.66699 98.001 -26s57 -42 75 -74s27 -65.333 27 -100s-100.167 -252.5 -300.5 -653.5s-309.333 -617.167 -327 -648.5s-42.334 -55.833 -74.001 -73.5s-64.834 -26.5 -99.501 -26.5s-68 8.83301 -100 26.5s-56.667 42.167 -74 73.5
s-125.666 247.5 -324.999 648.5s-299 618.833 -299 653.5s9 68 27 100s42.833 56.667 74.5 74s64.5 26 98.5 26c33.333 0 66 -8.66699 98 -26s57 -42 75 -74s159.667 -321 425 -867c267.333 546 410 835 428 867s42.833 56.667 74.5 74s64.5 26 98.5 26z" />
    <glyph glyph-name="w" unicode="w" horiz-adv-x="1801" 
d="M0 197v1200c-0.666992 134.667 66 201.334 200 200.001c132.667 -1.33301 199.334 -68 200.001 -200v-703l251.5 252c34.333 34.667 83.5 52 147.5 52c66 0 115.5 -16.833 148.5 -50.5l250.5 -257.5v707c2 134 69 201.333 201 202c134.667 -2 202 -69.333 202 -202
l-1 -1200c-0.666992 -132 -67.334 -198.333 -200.001 -199c-66 0 -115.667 17.167 -149 51.5l-450 451.5l-453 -452c-32 -32.667 -81.667 -49.667 -149 -51c-132.667 0 -199 66.333 -199 199z" />
    <glyph glyph-name="x" unicode="x" horiz-adv-x="1601" 
d="M201 1603c66.667 0 116.831 -16.332 150.498 -48.999s152.167 -172 355.5 -418c206.667 250 326.834 391.167 360.501 423.5s83.834 48.5 150.501 48.5c65.333 0 115.5 -16.833 150.5 -50.5s51.5 -84.167 49.5 -151.5c0 -70.667 -35.333 -136.667 -106 -198l-340 -402
l341 -397c75.333 -70.667 110 -138.667 104 -204c3.33301 -67.333 -13.167 -117.833 -49.5 -151.5s-86.833 -49.834 -151.5 -48.501c-68.667 -0.666992 -120.167 16.666 -154.5 51.999s-150.833 173.333 -349.5 414c-202 -244.667 -320.167 -384.5 -354.5 -419.5
s-85.833 -52.167 -154.5 -51.5c-64.667 -1.33301 -115.167 14.834 -151.5 48.501s-52.833 84.167 -49.5 151.5c-6 65.333 28.667 133 104 203l356 398l-355 401c-70.667 62 -106 128.333 -106 199c-2 67.333 14.5 117.833 49.5 151.5s85.167 50.5 150.5 50.5z" />
    <glyph glyph-name="y" unicode="y" horiz-adv-x="1601" 
d="M201 1603c66.667 0 116.831 -16.333 150.498 -49s152.167 -172 355.5 -418c206.667 250 326.834 391.167 360.501 423.5s83.834 48.5 150.501 48.5c65.333 0 115.5 -16.833 150.5 -50.5s51.5 -84.167 49.5 -151.5c0 -70.667 -35.333 -136.667 -106 -198l-409 -478
l-1 -531c-2.66699 -130.667 -69.667 -197 -201 -199c-132 -3.33301 -198 65 -198 205l-2 527l-394 470c-70.667 62 -106 128.333 -106 199c-2 67.333 14.5 117.833 49.5 151.5s85.167 50.5 150.5 50.5z" />
    <glyph glyph-name="z" unicode="z" horiz-adv-x="1600" 
d="M1401 1373c-5.33301 -72.667 -32.668 -130.667 -82.001 -174l-675 -800h582c114.667 -2.66699 173 -59.334 175 -170.001c-2 -150 -61.667 -225.667 -179 -227l-1047 -2c-114.667 1.33301 -173 77.666 -175 228.999c1.33301 68.667 29 124.334 83 167.001l679 803h-587
c-115.333 0.666992 -173.666 58.667 -174.999 174c-0.666992 150.667 58.333 226.334 177 227.001h1050c115.333 0.666992 173.333 -75 174 -227z" />
    <glyph glyph-name="braceleft" unicode="{" horiz-adv-x="684" 
 />
    <glyph glyph-name="bar" unicode="|" horiz-adv-x="532" 
 />
    <glyph glyph-name="braceright" unicode="}" horiz-adv-x="684" 
 />
    <glyph glyph-name="asciitilde" unicode="~" horiz-adv-x="1196" 
 />
    <glyph glyph-name="exclamdown" unicode="&#xa1;" horiz-adv-x="682" 
 />
    <glyph glyph-name="cent" unicode="&#xa2;" 
 />
    <glyph glyph-name="sterling" unicode="&#xa3;" 
 />
    <glyph glyph-name="yen" unicode="&#xa5;" 
 />
    <glyph glyph-name="brokenbar" unicode="&#xa6;" horiz-adv-x="532" 
 />
    <glyph glyph-name="section" unicode="&#xa7;" 
 />
    <glyph glyph-name="dieresis" unicode="&#xa8;" horiz-adv-x="682" 
 />
    <glyph glyph-name="copyright" unicode="&#xa9;" horiz-adv-x="1509" 
 />
    <glyph glyph-name="ordfeminine" unicode="&#xaa;" horiz-adv-x="758" 
 />
    <glyph glyph-name="guillemotleft" unicode="&#xab;" 
 />
    <glyph glyph-name="logicalnot" unicode="&#xac;" horiz-adv-x="1196" 
 />
    <glyph glyph-name="registered" unicode="&#xae;" horiz-adv-x="1509" 
 />
    <glyph glyph-name="overscore" unicode="&#xaf;" horiz-adv-x="1131" 
 />
    <glyph glyph-name="degree" unicode="&#xb0;" horiz-adv-x="819" 
 />
    <glyph glyph-name="plusminus" unicode="&#xb1;" horiz-adv-x="1124" 
 />
    <glyph glyph-name="twosuperior" unicode="&#xb2;" horiz-adv-x="682" 
 />
    <glyph glyph-name="threesuperior" unicode="&#xb3;" horiz-adv-x="682" 
 />
    <glyph glyph-name="acute" unicode="&#xb4;" horiz-adv-x="682" 
 />
    <glyph glyph-name="mu1" unicode="&#xb5;" horiz-adv-x="1180" 
 />
    <glyph glyph-name="paragraph" unicode="&#xb6;" horiz-adv-x="1100" 
 />
    <glyph glyph-name="periodcentered" unicode="&#xb7;" horiz-adv-x="569" 
 />
    <glyph glyph-name="periodcentered" unicode="&#x2219;" horiz-adv-x="569" 
 />
    <glyph glyph-name="cedilla" unicode="&#xb8;" horiz-adv-x="682" 
 />
    <glyph glyph-name="onesuperior" unicode="&#xb9;" horiz-adv-x="682" 
 />
    <glyph glyph-name="ordmasculine" unicode="&#xba;" horiz-adv-x="748" 
 />
    <glyph glyph-name="guillemotright" unicode="&#xbb;" 
 />
    <glyph glyph-name="onequarter" unicode="&#xbc;" horiz-adv-x="1708" 
 />
    <glyph glyph-name="onehalf" unicode="&#xbd;" horiz-adv-x="1708" 
 />
    <glyph glyph-name="threequarters" unicode="&#xbe;" horiz-adv-x="1708" 
 />
    <glyph glyph-name="questiondown" unicode="&#xbf;" horiz-adv-x="1251" 
 />
    <glyph glyph-name="Agrave" unicode="&#xc0;" horiz-adv-x="1366" 
 />
    <glyph glyph-name="Aacute" unicode="&#xc1;" horiz-adv-x="1366" 
 />
    <glyph glyph-name="Acircumflex" unicode="&#xc2;" horiz-adv-x="1366" 
 />
    <glyph glyph-name="Atilde" unicode="&#xc3;" horiz-adv-x="1366" 
 />
    <glyph glyph-name="Adieresis" unicode="&#xc4;" horiz-adv-x="1366" 
 />
    <glyph glyph-name="Aring" unicode="&#xc5;" horiz-adv-x="1366" 
 />
    <glyph glyph-name="AE" unicode="&#xc6;" horiz-adv-x="2048" 
 />
    <glyph glyph-name="Ccedilla" unicode="&#xc7;" horiz-adv-x="1479" 
 />
    <glyph glyph-name="Egrave" unicode="&#xc8;" horiz-adv-x="1366" 
 />
    <glyph glyph-name="Eacute" unicode="&#xc9;" horiz-adv-x="1366" 
 />
    <glyph glyph-name="Ecircumflex" unicode="&#xca;" horiz-adv-x="1366" 
 />
    <glyph glyph-name="Edieresis" unicode="&#xcb;" horiz-adv-x="1366" 
 />
    <glyph glyph-name="Igrave" unicode="&#xcc;" horiz-adv-x="569" 
 />
    <glyph glyph-name="Iacute" unicode="&#xcd;" horiz-adv-x="569" 
 />
    <glyph glyph-name="Icircumflex" unicode="&#xce;" horiz-adv-x="569" 
 />
    <glyph glyph-name="Idieresis" unicode="&#xcf;" horiz-adv-x="569" 
 />
    <glyph glyph-name="Eth" unicode="&#xd0;" horiz-adv-x="1479" 
 />
    <glyph glyph-name="Ntilde" unicode="&#xd1;" horiz-adv-x="1479" 
 />
    <glyph glyph-name="Ograve" unicode="&#xd2;" horiz-adv-x="1593" 
 />
    <glyph glyph-name="Oacute" unicode="&#xd3;" horiz-adv-x="1593" 
 />
    <glyph glyph-name="Ocircumflex" unicode="&#xd4;" horiz-adv-x="1593" 
 />
    <glyph glyph-name="Otilde" unicode="&#xd5;" horiz-adv-x="1593" 
 />
    <glyph glyph-name="Odieresis" unicode="&#xd6;" horiz-adv-x="1593" 
 />
    <glyph glyph-name="multiply" unicode="&#xd7;" horiz-adv-x="1196" 
 />
    <glyph glyph-name="Oslash" unicode="&#xd8;" horiz-adv-x="1593" 
 />
    <glyph glyph-name="Ugrave" unicode="&#xd9;" horiz-adv-x="1479" 
 />
    <glyph glyph-name="Uacute" unicode="&#xda;" horiz-adv-x="1479" 
 />
    <glyph glyph-name="Ucircumflex" unicode="&#xdb;" horiz-adv-x="1479" 
 />
    <glyph glyph-name="Udieresis" unicode="&#xdc;" horiz-adv-x="1479" 
 />
    <glyph glyph-name="Yacute" unicode="&#xdd;" horiz-adv-x="1366" 
 />
    <glyph glyph-name="Thorn" unicode="&#xde;" horiz-adv-x="1366" 
 />
    <glyph glyph-name="germandbls" unicode="&#xdf;" horiz-adv-x="1251" 
 />
    <glyph glyph-name="agrave" unicode="&#xe0;" 
 />
    <glyph glyph-name="aacute" unicode="&#xe1;" 
 />
    <glyph glyph-name="acircumflex" unicode="&#xe2;" 
 />
    <glyph glyph-name="atilde" unicode="&#xe3;" 
 />
    <glyph glyph-name="adieresis" unicode="&#xe4;" 
 />
    <glyph glyph-name="aring" unicode="&#xe5;" 
 />
    <glyph glyph-name="ae" unicode="&#xe6;" horiz-adv-x="1821" 
 />
    <glyph glyph-name="ccedilla" unicode="&#xe7;" horiz-adv-x="1024" 
 />
    <glyph glyph-name="egrave" unicode="&#xe8;" 
 />
    <glyph glyph-name="eacute" unicode="&#xe9;" 
 />
    <glyph glyph-name="ecircumflex" unicode="&#xea;" 
 />
    <glyph glyph-name="edieresis" unicode="&#xeb;" 
 />
    <glyph glyph-name="igrave" unicode="&#xec;" horiz-adv-x="569" 
 />
    <glyph glyph-name="iacute" unicode="&#xed;" horiz-adv-x="569" 
 />
    <glyph glyph-name="icircumflex" unicode="&#xee;" horiz-adv-x="569" 
 />
    <glyph glyph-name="idieresis" unicode="&#xef;" horiz-adv-x="569" 
 />
    <glyph glyph-name="eth" unicode="&#xf0;" 
 />
    <glyph glyph-name="ntilde" unicode="&#xf1;" 
 />
    <glyph glyph-name="ograve" unicode="&#xf2;" 
 />
    <glyph glyph-name="oacute" unicode="&#xf3;" 
 />
    <glyph glyph-name="ocircumflex" unicode="&#xf4;" 
 />
    <glyph glyph-name="otilde" unicode="&#xf5;" 
 />
    <glyph glyph-name="odieresis" unicode="&#xf6;" 
 />
    <glyph glyph-name="divide" unicode="&#xf7;" horiz-adv-x="1124" 
 />
    <glyph glyph-name="oslash" unicode="&#xf8;" horiz-adv-x="1251" 
 />
    <glyph glyph-name="ugrave" unicode="&#xf9;" 
 />
    <glyph glyph-name="uacute" unicode="&#xfa;" 
 />
    <glyph glyph-name="ucircumflex" unicode="&#xfb;" 
 />
    <glyph glyph-name="udieresis" unicode="&#xfc;" 
 />
    <glyph glyph-name="yacute" unicode="&#xfd;" horiz-adv-x="1024" 
 />
    <glyph glyph-name="thorn" unicode="&#xfe;" 
 />
    <glyph glyph-name="ydieresis" unicode="&#xff;" horiz-adv-x="1024" 
 />
    <glyph glyph-name="Amacron" unicode="&#x100;" horiz-adv-x="1366" 
 />
    <glyph glyph-name="amacron" unicode="&#x101;" 
 />
    <glyph glyph-name="Abreve" unicode="&#x102;" horiz-adv-x="1366" 
 />
    <glyph glyph-name="abreve" unicode="&#x103;" 
 />
    <glyph glyph-name="Aogonek" unicode="&#x104;" horiz-adv-x="1366" 
 />
    <glyph glyph-name="aogonek" unicode="&#x105;" 
 />
    <glyph glyph-name="Cacute" unicode="&#x106;" horiz-adv-x="1479" 
 />
    <glyph glyph-name="cacute" unicode="&#x107;" horiz-adv-x="1024" 
 />
    <glyph glyph-name="Ccircumflex" unicode="&#x108;" horiz-adv-x="1479" 
 />
    <glyph glyph-name="ccircumflex" unicode="&#x109;" horiz-adv-x="1024" 
 />
    <glyph glyph-name="Cdot" unicode="&#x10a;" horiz-adv-x="1479" 
 />
    <glyph glyph-name="cdot" unicode="&#x10b;" horiz-adv-x="1024" 
 />
    <glyph glyph-name="Ccaron" unicode="&#x10c;" horiz-adv-x="1479" 
 />
    <glyph glyph-name="ccaron" unicode="&#x10d;" horiz-adv-x="1024" 
 />
    <glyph glyph-name="Dcaron" unicode="&#x10e;" horiz-adv-x="1479" 
 />
    <glyph glyph-name="dcaron" unicode="&#x10f;" horiz-adv-x="1259" 
 />
    <glyph glyph-name="Dslash" unicode="&#x110;" horiz-adv-x="1479" 
 />
    <glyph glyph-name="dmacron" unicode="&#x111;" 
 />
    <glyph glyph-name="Emacron" unicode="&#x112;" horiz-adv-x="1366" 
 />
    <glyph glyph-name="emacron" unicode="&#x113;" 
 />
    <glyph glyph-name="Ebreve" unicode="&#x114;" horiz-adv-x="1366" 
 />
    <glyph glyph-name="ebreve" unicode="&#x115;" 
 />
    <glyph glyph-name="Edot" unicode="&#x116;" horiz-adv-x="1366" 
 />
    <glyph glyph-name="edot" unicode="&#x117;" 
 />
    <glyph glyph-name="Eogonek" unicode="&#x118;" horiz-adv-x="1366" 
 />
    <glyph glyph-name="eogonek" unicode="&#x119;" 
 />
    <glyph glyph-name="Ecaron" unicode="&#x11a;" horiz-adv-x="1366" 
 />
    <glyph glyph-name="ecaron" unicode="&#x11b;" 
 />
    <glyph glyph-name="Gcircumflex" unicode="&#x11c;" horiz-adv-x="1593" 
 />
    <glyph glyph-name="gcircumflex" unicode="&#x11d;" 
 />
    <glyph glyph-name="Gbreve" unicode="&#x11e;" horiz-adv-x="1593" 
 />
    <glyph glyph-name="gbreve" unicode="&#x11f;" 
 />
    <glyph glyph-name="Gdot" unicode="&#x120;" horiz-adv-x="1593" 
 />
    <glyph glyph-name="gdot" unicode="&#x121;" 
 />
    <glyph glyph-name="Gcedilla" unicode="&#x122;" horiz-adv-x="1593" 
 />
    <glyph glyph-name="gcedilla" unicode="&#x123;" 
 />
    <glyph glyph-name="Hcircumflex" unicode="&#x124;" horiz-adv-x="1479" 
 />
    <glyph glyph-name="hcircumflex" unicode="&#x125;" 
 />
    <glyph glyph-name="Hbar" unicode="&#x126;" horiz-adv-x="1479" 
 />
    <glyph glyph-name="hbar" unicode="&#x127;" 
 />
    <glyph glyph-name="Itilde" unicode="&#x128;" horiz-adv-x="569" 
 />
    <glyph glyph-name="itilde" unicode="&#x129;" horiz-adv-x="569" 
 />
    <glyph glyph-name="Imacron" unicode="&#x12a;" horiz-adv-x="569" 
 />
    <glyph glyph-name="imacron" unicode="&#x12b;" horiz-adv-x="569" 
 />
    <glyph glyph-name="Ibreve" unicode="&#x12c;" horiz-adv-x="569" 
 />
    <glyph glyph-name="ibreve" unicode="&#x12d;" horiz-adv-x="569" 
 />
    <glyph glyph-name="Iogonek" unicode="&#x12e;" horiz-adv-x="569" 
 />
    <glyph glyph-name="iogonek" unicode="&#x12f;" horiz-adv-x="455" 
 />
    <glyph glyph-name="Idotaccent" unicode="&#x130;" horiz-adv-x="569" 
 />
    <glyph glyph-name="dotlessi" unicode="&#x131;" horiz-adv-x="569" 
 />
    <glyph glyph-name="IJ" unicode="&#x132;" horiz-adv-x="1505" 
 />
    <glyph glyph-name="ij" unicode="&#x133;" horiz-adv-x="909" 
 />
    <glyph glyph-name="Jcircumflex" unicode="&#x134;" horiz-adv-x="1024" 
 />
    <glyph glyph-name="jcircumflex" unicode="&#x135;" horiz-adv-x="455" 
 />
    <glyph glyph-name="Kcedilla" unicode="&#x136;" horiz-adv-x="1366" 
 />
    <glyph glyph-name="kcedilla" unicode="&#x137;" horiz-adv-x="1024" 
 />
    <glyph glyph-name="kgreenlandic" unicode="&#x138;" horiz-adv-x="1024" 
 />
    <glyph glyph-name="Lacute" unicode="&#x139;" 
 />
    <glyph glyph-name="lacute" unicode="&#x13a;" horiz-adv-x="455" 
 />
    <glyph glyph-name="Lcedilla" unicode="&#x13b;" 
 />
    <glyph glyph-name="lcedilla" unicode="&#x13c;" horiz-adv-x="455" 
 />
    <glyph glyph-name="Lcaron" unicode="&#x13d;" 
 />
    <glyph glyph-name="lcaron" unicode="&#x13e;" horiz-adv-x="597" 
 />
    <glyph glyph-name="Ldot" unicode="&#x13f;" 
 />
    <glyph glyph-name="ldot" unicode="&#x140;" horiz-adv-x="684" 
 />
    <glyph glyph-name="Lslash" unicode="&#x141;" 
 />
    <glyph glyph-name="lslash" unicode="&#x142;" horiz-adv-x="455" 
 />
    <glyph glyph-name="Nacute" unicode="&#x143;" horiz-adv-x="1479" 
 />
    <glyph glyph-name="nacute" unicode="&#x144;" 
 />
    <glyph glyph-name="Ncedilla" unicode="&#x145;" horiz-adv-x="1479" 
 />
    <glyph glyph-name="ncedilla" unicode="&#x146;" 
 />
    <glyph glyph-name="Ncaron" unicode="&#x147;" horiz-adv-x="1479" 
 />
    <glyph glyph-name="ncaron" unicode="&#x148;" 
 />
    <glyph glyph-name="napostrophe" unicode="&#x149;" horiz-adv-x="1237" 
 />
    <glyph glyph-name="Eng" unicode="&#x14a;" horiz-adv-x="1481" 
 />
    <glyph glyph-name="eng" unicode="&#x14b;" 
 />
    <glyph glyph-name="Omacron" unicode="&#x14c;" horiz-adv-x="1593" 
 />
    <glyph glyph-name="omacron" unicode="&#x14d;" 
 />
    <glyph glyph-name="Obreve" unicode="&#x14e;" horiz-adv-x="1593" 
 />
    <glyph glyph-name="obreve" unicode="&#x14f;" 
 />
    <glyph glyph-name="Odblacute" unicode="&#x150;" horiz-adv-x="1593" 
 />
    <glyph glyph-name="odblacute" unicode="&#x151;" 
 />
    <glyph glyph-name="OE" unicode="&#x152;" horiz-adv-x="2048" 
 />
    <glyph glyph-name="oe" unicode="&#x153;" horiz-adv-x="1933" 
 />
    <glyph glyph-name="Racute" unicode="&#x154;" horiz-adv-x="1479" 
 />
    <glyph glyph-name="racute" unicode="&#x155;" horiz-adv-x="682" 
 />
    <glyph glyph-name="Rcedilla" unicode="&#x156;" horiz-adv-x="1479" 
 />
    <glyph glyph-name="rcedilla" unicode="&#x157;" horiz-adv-x="682" 
 />
    <glyph glyph-name="Rcaron" unicode="&#x158;" horiz-adv-x="1479" 
 />
    <glyph glyph-name="rcaron" unicode="&#x159;" horiz-adv-x="682" 
 />
    <glyph glyph-name="Sacute" unicode="&#x15a;" horiz-adv-x="1366" 
 />
    <glyph glyph-name="sacute" unicode="&#x15b;" horiz-adv-x="1024" 
 />
    <glyph glyph-name="Scircumflex" unicode="&#x15c;" horiz-adv-x="1366" 
 />
    <glyph glyph-name="scircumflex" unicode="&#x15d;" horiz-adv-x="1024" 
 />
    <glyph glyph-name="Scedilla" unicode="&#x15e;" horiz-adv-x="1366" 
 />
    <glyph glyph-name="scedilla" unicode="&#x15f;" horiz-adv-x="1024" 
 />
    <glyph glyph-name="Scaron" unicode="&#x160;" horiz-adv-x="1366" 
 />
    <glyph glyph-name="scaron" unicode="&#x161;" horiz-adv-x="1024" 
 />
    <glyph glyph-name="Tcedilla" unicode="&#x162;" horiz-adv-x="1251" 
 />
    <glyph glyph-name="tcedilla" unicode="&#x163;" horiz-adv-x="569" 
 />
    <glyph glyph-name="Tcaron" unicode="&#x164;" horiz-adv-x="1251" 
 />
    <glyph glyph-name="tcaron" unicode="&#x165;" horiz-adv-x="768" 
 />
    <glyph glyph-name="Tbar" unicode="&#x166;" horiz-adv-x="1251" 
 />
    <glyph glyph-name="tbar" unicode="&#x167;" horiz-adv-x="569" 
 />
    <glyph glyph-name="Utilde" unicode="&#x168;" horiz-adv-x="1479" 
 />
    <glyph glyph-name="utilde" unicode="&#x169;" 
 />
    <glyph glyph-name="Umacron" unicode="&#x16a;" horiz-adv-x="1479" 
 />
    <glyph glyph-name="umacron" unicode="&#x16b;" 
 />
    <glyph glyph-name="Ubreve" unicode="&#x16c;" horiz-adv-x="1479" 
 />
    <glyph glyph-name="ubreve" unicode="&#x16d;" 
 />
    <glyph glyph-name="Uring" unicode="&#x16e;" horiz-adv-x="1479" 
 />
    <glyph glyph-name="uring" unicode="&#x16f;" 
 />
    <glyph glyph-name="Udblacute" unicode="&#x170;" horiz-adv-x="1479" 
 />
    <glyph glyph-name="udblacute" unicode="&#x171;" 
 />
    <glyph glyph-name="Uogonek" unicode="&#x172;" horiz-adv-x="1479" 
 />
    <glyph glyph-name="uogonek" unicode="&#x173;" 
 />
    <glyph glyph-name="Wcircumflex" unicode="&#x174;" horiz-adv-x="1933" 
 />
    <glyph glyph-name="wcircumflex" unicode="&#x175;" horiz-adv-x="1479" 
 />
    <glyph glyph-name="Ycircumflex" unicode="&#x176;" horiz-adv-x="1366" 
 />
    <glyph glyph-name="ycircumflex" unicode="&#x177;" horiz-adv-x="1024" 
 />
    <glyph glyph-name="Ydieresis" unicode="&#x178;" horiz-adv-x="1366" 
 />
    <glyph glyph-name="Zacute" unicode="&#x179;" horiz-adv-x="1251" 
 />
    <glyph glyph-name="zacute" unicode="&#x17a;" horiz-adv-x="1024" 
 />
    <glyph glyph-name="Zdot" unicode="&#x17b;" horiz-adv-x="1251" 
 />
    <glyph glyph-name="zdot" unicode="&#x17c;" horiz-adv-x="1024" 
 />
    <glyph glyph-name="Zcaron" unicode="&#x17d;" horiz-adv-x="1251" 
 />
    <glyph glyph-name="zcaron" unicode="&#x17e;" horiz-adv-x="1024" 
 />
    <glyph glyph-name="longs" unicode="&#x17f;" horiz-adv-x="455" 
 />
    <glyph glyph-name="florin" unicode="&#x192;" 
 />
    <glyph glyph-name="Aringacute" unicode="&#x1fa;" horiz-adv-x="1366" 
 />
    <glyph glyph-name="aringacute" unicode="&#x1fb;" 
 />
    <glyph glyph-name="AEacute" unicode="&#x1fc;" horiz-adv-x="2048" 
 />
    <glyph glyph-name="aeacute" unicode="&#x1fd;" horiz-adv-x="1821" 
 />
    <glyph glyph-name="Oslashacute" unicode="&#x1fe;" horiz-adv-x="1593" 
 />
    <glyph glyph-name="oslashacute" unicode="&#x1ff;" horiz-adv-x="1251" 
 />
    <glyph glyph-name="circumflex" unicode="&#x2c6;" horiz-adv-x="682" 
 />
    <glyph glyph-name="caron" unicode="&#x2c7;" horiz-adv-x="682" 
 />
    <glyph glyph-name="macron" unicode="&#x2c9;" horiz-adv-x="682" 
 />
    <glyph glyph-name="breve" unicode="&#x2d8;" horiz-adv-x="682" 
 />
    <glyph glyph-name="dotaccent" unicode="&#x2d9;" horiz-adv-x="682" 
 />
    <glyph glyph-name="ring" unicode="&#x2da;" horiz-adv-x="682" 
 />
    <glyph glyph-name="ogonek" unicode="&#x2db;" horiz-adv-x="682" 
 />
    <glyph glyph-name="tilde" unicode="&#x2dc;" horiz-adv-x="682" 
 />
    <glyph glyph-name="hungarumlaut" unicode="&#x2dd;" horiz-adv-x="682" 
 />
    <glyph glyph-name="tonos" unicode="&#x384;" horiz-adv-x="682" 
 />
    <glyph glyph-name="dieresistonos" unicode="&#x385;" horiz-adv-x="682" 
 />
    <glyph glyph-name="Alphatonos" unicode="&#x386;" horiz-adv-x="1367" 
 />
    <glyph glyph-name="anoteleia" unicode="&#x387;" horiz-adv-x="569" 
 />
    <glyph glyph-name="Epsilontonos" unicode="&#x388;" horiz-adv-x="1606" 
 />
    <glyph glyph-name="Etatonos" unicode="&#x389;" horiz-adv-x="1716" 
 />
    <glyph glyph-name="Iotatonos" unicode="&#x38a;" horiz-adv-x="786" 
 />
    <glyph glyph-name="Omicrontonos" unicode="&#x38c;" horiz-adv-x="1586" 
 />
    <glyph glyph-name="Upsilontonos" unicode="&#x38e;" horiz-adv-x="1752" 
 />
    <glyph glyph-name="Omegatonos" unicode="&#x38f;" horiz-adv-x="1541" 
 />
    <glyph glyph-name="iotadieresistonos" unicode="&#x390;" horiz-adv-x="455" 
 />
    <glyph glyph-name="Alpha" unicode="&#x391;" horiz-adv-x="1366" 
 />
    <glyph glyph-name="Beta" unicode="&#x392;" horiz-adv-x="1366" 
 />
    <glyph glyph-name="Gamma" unicode="&#x393;" horiz-adv-x="1128" 
 />
    <glyph glyph-name="Delta" unicode="&#x394;" horiz-adv-x="1368" 
 />
    <glyph glyph-name="Epsilon" unicode="&#x395;" horiz-adv-x="1366" 
 />
    <glyph glyph-name="Zeta" unicode="&#x396;" horiz-adv-x="1251" 
 />
    <glyph glyph-name="Eta" unicode="&#x397;" horiz-adv-x="1479" 
 />
    <glyph glyph-name="Theta" unicode="&#x398;" horiz-adv-x="1593" 
 />
    <glyph glyph-name="Iota" unicode="&#x399;" horiz-adv-x="569" 
 />
    <glyph glyph-name="Kappa" unicode="&#x39a;" horiz-adv-x="1366" 
 />
    <glyph glyph-name="Lambda" unicode="&#x39b;" horiz-adv-x="1368" 
 />
    <glyph glyph-name="Mu" unicode="&#x39c;" horiz-adv-x="1706" 
 />
    <glyph glyph-name="Nu" unicode="&#x39d;" horiz-adv-x="1479" 
 />
    <glyph glyph-name="Xi" unicode="&#x39e;" horiz-adv-x="1331" 
 />
    <glyph glyph-name="Omicron" unicode="&#x39f;" horiz-adv-x="1593" 
 />
    <glyph glyph-name="Pi" unicode="&#x3a0;" horiz-adv-x="1479" 
 />
    <glyph glyph-name="Rho" unicode="&#x3a1;" horiz-adv-x="1366" 
 />
    <glyph glyph-name="Sigma" unicode="&#x3a3;" horiz-adv-x="1266" 
 />
    <glyph glyph-name="Tau" unicode="&#x3a4;" horiz-adv-x="1251" 
 />
    <glyph glyph-name="Upsilon" unicode="&#x3a5;" horiz-adv-x="1366" 
 />
    <glyph glyph-name="Phi" unicode="&#x3a6;" horiz-adv-x="1634" 
 />
    <glyph glyph-name="Chi" unicode="&#x3a7;" horiz-adv-x="1366" 
 />
    <glyph glyph-name="Psi" unicode="&#x3a8;" horiz-adv-x="1711" 
 />
    <glyph glyph-name="Omega" unicode="&#x3a9;" horiz-adv-x="1531" 
 />
    <glyph glyph-name="Iotadieresis" unicode="&#x3aa;" horiz-adv-x="569" 
 />
    <glyph glyph-name="Upsilondieresis" unicode="&#x3ab;" horiz-adv-x="1366" 
 />
    <glyph glyph-name="alphatonos" unicode="&#x3ac;" horiz-adv-x="1184" 
 />
    <glyph glyph-name="epsilontonos" unicode="&#x3ad;" horiz-adv-x="913" 
 />
    <glyph glyph-name="etatonos" unicode="&#x3ae;" 
 />
    <glyph glyph-name="iotatonos" unicode="&#x3af;" horiz-adv-x="455" 
 />
    <glyph glyph-name="upsilondieresistonos" unicode="&#x3b0;" horiz-adv-x="1120" 
 />
    <glyph glyph-name="alpha" unicode="&#x3b1;" horiz-adv-x="1184" 
 />
    <glyph glyph-name="beta" unicode="&#x3b2;" horiz-adv-x="1178" 
 />
    <glyph glyph-name="gamma" unicode="&#x3b3;" horiz-adv-x="1024" 
 />
    <glyph glyph-name="delta" unicode="&#x3b4;" horiz-adv-x="1140" 
 />
    <glyph glyph-name="epsilon" unicode="&#x3b5;" horiz-adv-x="913" 
 />
    <glyph glyph-name="zeta" unicode="&#x3b6;" horiz-adv-x="903" 
 />
    <glyph glyph-name="eta" unicode="&#x3b7;" 
 />
    <glyph glyph-name="theta" unicode="&#x3b8;" 
 />
    <glyph glyph-name="iota" unicode="&#x3b9;" horiz-adv-x="455" 
 />
    <glyph glyph-name="kappa" unicode="&#x3ba;" horiz-adv-x="1024" 
 />
    <glyph glyph-name="lambda" unicode="&#x3bb;" horiz-adv-x="1024" 
 />
    <glyph glyph-name="mu" unicode="&#x3bc;" horiz-adv-x="1180" 
 />
    <glyph glyph-name="nu" unicode="&#x3bd;" horiz-adv-x="1024" 
 />
    <glyph glyph-name="xi" unicode="&#x3be;" horiz-adv-x="917" 
 />
    <glyph glyph-name="omicron" unicode="&#x3bf;" 
 />
    <glyph glyph-name="pi" unicode="&#x3c0;" horiz-adv-x="1413" 
 />
    <glyph glyph-name="rho" unicode="&#x3c1;" horiz-adv-x="1165" 
 />
    <glyph glyph-name="sigma1" unicode="&#x3c2;" horiz-adv-x="987" 
 />
    <glyph glyph-name="sigma" unicode="&#x3c3;" horiz-adv-x="1264" 
 />
    <glyph glyph-name="tau" unicode="&#x3c4;" horiz-adv-x="809" 
 />
    <glyph glyph-name="upsilon" unicode="&#x3c5;" horiz-adv-x="1120" 
 />
    <glyph glyph-name="phi" unicode="&#x3c6;" horiz-adv-x="1328" 
 />
    <glyph glyph-name="chi" unicode="&#x3c7;" horiz-adv-x="1075" 
 />
    <glyph glyph-name="psi" unicode="&#x3c8;" horiz-adv-x="1460" 
 />
    <glyph glyph-name="omega" unicode="&#x3c9;" horiz-adv-x="1599" 
 />
    <glyph glyph-name="iotadieresis" unicode="&#x3ca;" horiz-adv-x="455" 
 />
    <glyph glyph-name="upsilondieresis" unicode="&#x3cb;" horiz-adv-x="1120" 
 />
    <glyph glyph-name="omicrontonos" unicode="&#x3cc;" 
 />
    <glyph glyph-name="upsilontonos" unicode="&#x3cd;" horiz-adv-x="1120" 
 />
    <glyph glyph-name="omegatonos" unicode="&#x3ce;" horiz-adv-x="1599" 
 />
    <glyph glyph-name="afii10023" unicode="&#x401;" horiz-adv-x="1367" 
 />
    <glyph glyph-name="afii10051" unicode="&#x402;" horiz-adv-x="1771" 
 />
    <glyph glyph-name="afii10052" unicode="&#x403;" horiz-adv-x="1109" 
 />
    <glyph glyph-name="afii10053" unicode="&#x404;" horiz-adv-x="1472" 
 />
    <glyph glyph-name="afii10054" unicode="&#x405;" horiz-adv-x="1366" 
 />
    <glyph glyph-name="afii10055" unicode="&#x406;" horiz-adv-x="569" 
 />
    <glyph glyph-name="afii10056" unicode="&#x407;" horiz-adv-x="569" 
 />
    <glyph glyph-name="afii10057" unicode="&#x408;" horiz-adv-x="1024" 
 />
    <glyph glyph-name="afii10058" unicode="&#x409;" horiz-adv-x="2165" 
 />
    <glyph glyph-name="afii10059" unicode="&#x40a;" horiz-adv-x="2069" 
 />
    <glyph glyph-name="afii10060" unicode="&#x40b;" horiz-adv-x="1749" 
 />
    <glyph glyph-name="afii10061" unicode="&#x40c;" horiz-adv-x="1193" 
 />
    <glyph glyph-name="afii10062" unicode="&#x40e;" horiz-adv-x="1301" 
 />
    <glyph glyph-name="afii10145" unicode="&#x40f;" horiz-adv-x="1472" 
 />
    <glyph glyph-name="afii10017" unicode="&#x410;" horiz-adv-x="1366" 
 />
    <glyph glyph-name="afii10018" unicode="&#x411;" horiz-adv-x="1344" 
 />
    <glyph glyph-name="afii10019" unicode="&#x412;" horiz-adv-x="1366" 
 />
    <glyph glyph-name="afii10020" unicode="&#x413;" horiz-adv-x="1109" 
 />
    <glyph glyph-name="afii10021" unicode="&#x414;" horiz-adv-x="1387" 
 />
    <glyph glyph-name="afii10022" unicode="&#x415;" horiz-adv-x="1366" 
 />
    <glyph glyph-name="afii10024" unicode="&#x416;" horiz-adv-x="1891" 
 />
    <glyph glyph-name="afii10025" unicode="&#x417;" horiz-adv-x="1237" 
 />
    <glyph glyph-name="afii10026" unicode="&#x418;" horiz-adv-x="1472" 
 />
    <glyph glyph-name="afii10027" unicode="&#x419;" horiz-adv-x="1472" 
 />
    <glyph glyph-name="afii10028" unicode="&#x41a;" horiz-adv-x="1193" 
 />
    <glyph glyph-name="afii10029" unicode="&#x41b;" horiz-adv-x="1344" 
 />
    <glyph glyph-name="afii10030" unicode="&#x41c;" horiz-adv-x="1706" 
 />
    <glyph glyph-name="afii10031" unicode="&#x41d;" horiz-adv-x="1479" 
 />
    <glyph glyph-name="afii10032" unicode="&#x41e;" horiz-adv-x="1593" 
 />
    <glyph glyph-name="afii10033" unicode="&#x41f;" horiz-adv-x="1472" 
 />
    <glyph glyph-name="afii10034" unicode="&#x420;" horiz-adv-x="1366" 
 />
    <glyph glyph-name="afii10035" unicode="&#x421;" horiz-adv-x="1479" 
 />
    <glyph glyph-name="afii10036" unicode="&#x422;" horiz-adv-x="1251" 
 />
    <glyph glyph-name="afii10037" unicode="&#x423;" horiz-adv-x="1301" 
 />
    <glyph glyph-name="afii10038" unicode="&#x424;" horiz-adv-x="1557" 
 />
    <glyph glyph-name="afii10039" unicode="&#x425;" horiz-adv-x="1366" 
 />
    <glyph glyph-name="afii10040" unicode="&#x426;" horiz-adv-x="1515" 
 />
    <glyph glyph-name="afii10041" unicode="&#x427;" horiz-adv-x="1365" 
 />
    <glyph glyph-name="afii10042" unicode="&#x428;" horiz-adv-x="1877" 
 />
    <glyph glyph-name="afii10043" unicode="&#x429;" horiz-adv-x="1920" 
 />
    <glyph glyph-name="afii10044" unicode="&#x42a;" horiz-adv-x="1621" 
 />
    <glyph glyph-name="afii10045" unicode="&#x42b;" horiz-adv-x="1813" 
 />
    <glyph glyph-name="afii10046" unicode="&#x42c;" horiz-adv-x="1344" 
 />
    <glyph glyph-name="afii10047" unicode="&#x42d;" horiz-adv-x="1472" 
 />
    <glyph glyph-name="afii10048" unicode="&#x42e;" horiz-adv-x="2069" 
 />
    <glyph glyph-name="afii10049" unicode="&#x42f;" horiz-adv-x="1479" 
 />
    <glyph glyph-name="afii10065" unicode="&#x430;" 
 />
    <glyph glyph-name="afii10066" unicode="&#x431;" horiz-adv-x="1173" 
 />
    <glyph glyph-name="afii10067" unicode="&#x432;" horiz-adv-x="1088" 
 />
    <glyph glyph-name="afii10068" unicode="&#x433;" horiz-adv-x="747" 
 />
    <glyph glyph-name="afii10069" unicode="&#x434;" horiz-adv-x="1195" 
 />
    <glyph glyph-name="afii10070" unicode="&#x435;" 
 />
    <glyph glyph-name="afii10072" unicode="&#x436;" horiz-adv-x="1370" 
 />
    <glyph glyph-name="afii10073" unicode="&#x437;" horiz-adv-x="939" 
 />
    <glyph glyph-name="afii10074" unicode="&#x438;" horiz-adv-x="1144" 
 />
    <glyph glyph-name="afii10075" unicode="&#x439;" horiz-adv-x="1144" 
 />
    <glyph glyph-name="afii10076" unicode="&#x43a;" horiz-adv-x="896" 
 />
    <glyph glyph-name="afii10077" unicode="&#x43b;" horiz-adv-x="1195" 
 />
    <glyph glyph-name="afii10078" unicode="&#x43c;" horiz-adv-x="1408" 
 />
    <glyph glyph-name="afii10079" unicode="&#x43d;" horiz-adv-x="1131" 
 />
    <glyph glyph-name="afii10080" unicode="&#x43e;" 
 />
    <glyph glyph-name="afii10081" unicode="&#x43f;" horiz-adv-x="1109" 
 />
    <glyph glyph-name="afii10082" unicode="&#x440;" 
 />
    <glyph glyph-name="afii10083" unicode="&#x441;" horiz-adv-x="1024" 
 />
    <glyph glyph-name="afii10084" unicode="&#x442;" horiz-adv-x="938" 
 />
    <glyph glyph-name="afii10085" unicode="&#x443;" horiz-adv-x="1024" 
 />
    <glyph glyph-name="afii10086" unicode="&#x444;" horiz-adv-x="1685" 
 />
    <glyph glyph-name="afii10087" unicode="&#x445;" horiz-adv-x="1024" 
 />
    <glyph glyph-name="afii10088" unicode="&#x446;" horiz-adv-x="1173" 
 />
    <glyph glyph-name="afii10089" unicode="&#x447;" horiz-adv-x="1067" 
 />
    <glyph glyph-name="afii10090" unicode="&#x448;" horiz-adv-x="1643" 
 />
    <glyph glyph-name="afii10091" unicode="&#x449;" horiz-adv-x="1685" 
 />
    <glyph glyph-name="afii10092" unicode="&#x44a;" horiz-adv-x="1280" 
 />
    <glyph glyph-name="afii10093" unicode="&#x44b;" horiz-adv-x="1472" 
 />
    <glyph glyph-name="afii10094" unicode="&#x44c;" horiz-adv-x="1067" 
 />
    <glyph glyph-name="afii10095" unicode="&#x44d;" horiz-adv-x="1045" 
 />
    <glyph glyph-name="afii10096" unicode="&#x44e;" horiz-adv-x="1536" 
 />
    <glyph glyph-name="afii10097" unicode="&#x44f;" horiz-adv-x="1109" 
 />
    <glyph glyph-name="afii10071" unicode="&#x451;" 
 />
    <glyph glyph-name="afii10099" unicode="&#x452;" 
 />
    <glyph glyph-name="afii10100" unicode="&#x453;" horiz-adv-x="747" 
 />
    <glyph glyph-name="afii10101" unicode="&#x454;" horiz-adv-x="1045" 
 />
    <glyph glyph-name="afii10102" unicode="&#x455;" horiz-adv-x="1024" 
 />
    <glyph glyph-name="afii10103" unicode="&#x456;" horiz-adv-x="455" 
 />
    <glyph glyph-name="afii10104" unicode="&#x457;" horiz-adv-x="569" 
 />
    <glyph glyph-name="afii10105" unicode="&#x458;" horiz-adv-x="455" 
 />
    <glyph glyph-name="afii10106" unicode="&#x459;" horiz-adv-x="1856" 
 />
    <glyph glyph-name="afii10107" unicode="&#x45a;" horiz-adv-x="1664" 
 />
    <glyph glyph-name="afii10108" unicode="&#x45b;" 
 />
    <glyph glyph-name="afii10109" unicode="&#x45c;" horiz-adv-x="896" 
 />
    <glyph glyph-name="afii10110" unicode="&#x45e;" horiz-adv-x="1024" 
 />
    <glyph glyph-name="afii10193" unicode="&#x45f;" horiz-adv-x="1131" 
 />
    <glyph glyph-name="afii10050" unicode="&#x490;" horiz-adv-x="1001" 
 />
    <glyph glyph-name="afii10098" unicode="&#x491;" horiz-adv-x="842" 
 />
    <glyph glyph-name="Wgrave" unicode="&#x1e80;" horiz-adv-x="1933" 
 />
    <glyph glyph-name="wgrave" unicode="&#x1e81;" horiz-adv-x="1479" 
 />
    <glyph glyph-name="Wacute" unicode="&#x1e82;" horiz-adv-x="1933" 
 />
    <glyph glyph-name="wacute" unicode="&#x1e83;" horiz-adv-x="1479" 
 />
    <glyph glyph-name="Wdieresis" unicode="&#x1e84;" horiz-adv-x="1933" 
 />
    <glyph glyph-name="wdieresis" unicode="&#x1e85;" horiz-adv-x="1479" 
 />
    <glyph glyph-name="Ygrave" unicode="&#x1ef2;" horiz-adv-x="1366" 
 />
    <glyph glyph-name="ygrave" unicode="&#x1ef3;" horiz-adv-x="1024" 
 />
    <glyph glyph-name="endash" unicode="&#x2013;" 
 />
    <glyph glyph-name="emdash" unicode="&#x2014;" horiz-adv-x="2048" 
 />
    <glyph glyph-name="afii00208" unicode="&#x2015;" horiz-adv-x="2048" 
 />
    <glyph glyph-name="underscoredbl" unicode="&#x2017;" horiz-adv-x="1131" 
 />
    <glyph glyph-name="quoteleft" unicode="&#x2018;" horiz-adv-x="455" 
 />
    <glyph glyph-name="quoteright" unicode="&#x2019;" horiz-adv-x="455" 
 />
    <glyph glyph-name="quotesinglbase" unicode="&#x201a;" horiz-adv-x="455" 
 />
    <glyph glyph-name="quotereversed" unicode="&#x201b;" horiz-adv-x="455" 
 />
    <glyph glyph-name="quotedblleft" unicode="&#x201c;" horiz-adv-x="682" 
 />
    <glyph glyph-name="quotedblright" unicode="&#x201d;" horiz-adv-x="682" 
 />
    <glyph glyph-name="quotedblbase" unicode="&#x201e;" horiz-adv-x="682" 
 />
    <glyph glyph-name="dagger" unicode="&#x2020;" 
 />
    <glyph glyph-name="daggerdbl" unicode="&#x2021;" 
 />
    <glyph glyph-name="bullet" unicode="&#x2022;" horiz-adv-x="717" 
 />
    <glyph glyph-name="ellipsis" unicode="&#x2026;" horiz-adv-x="2048" 
 />
    <glyph glyph-name="perthousand" unicode="&#x2030;" horiz-adv-x="2048" 
 />
    <glyph glyph-name="minute" unicode="&#x2032;" horiz-adv-x="384" 
 />
    <glyph glyph-name="second" unicode="&#x2033;" horiz-adv-x="725" 
 />
    <glyph glyph-name="guilsinglleft" unicode="&#x2039;" horiz-adv-x="682" 
 />
    <glyph glyph-name="guilsinglright" unicode="&#x203a;" horiz-adv-x="682" 
 />
    <glyph glyph-name="exclamdbl" unicode="&#x203c;" horiz-adv-x="1024" 
 />
    <glyph glyph-name="radicalex" unicode="&#x203e;" horiz-adv-x="682" 
 />
    <glyph glyph-name="fraction" unicode="&#x2044;" horiz-adv-x="342" 
 />
    <glyph glyph-name="fraction" unicode="&#x2215;" horiz-adv-x="342" 
 />
    <glyph glyph-name="nsuperior" unicode="&#x207f;" horiz-adv-x="747" 
 />
    <glyph glyph-name="franc" unicode="&#x20a3;" 
 />
    <glyph glyph-name="afii08941" unicode="&#x20a4;" 
 />
    <glyph glyph-name="peseta" unicode="&#x20a7;" horiz-adv-x="2240" 
 />
    <glyph glyph-name="Euro" unicode="&#x20ac;" 
 />
    <glyph glyph-name="afii61248" unicode="&#x2105;" horiz-adv-x="1813" 
 />
    <glyph glyph-name="afii61289" unicode="&#x2113;" horiz-adv-x="662" 
 />
    <glyph glyph-name="afii61352" unicode="&#x2116;" horiz-adv-x="2197" 
 />
    <glyph glyph-name="trademark" unicode="&#x2122;" horiz-adv-x="2048" 
 />
    <glyph glyph-name="Ohm" unicode="&#x2126;" horiz-adv-x="1573" 
 />
    <glyph glyph-name="estimated" unicode="&#x212e;" horiz-adv-x="1229" 
 />
    <glyph glyph-name="oneeighth" unicode="&#x215b;" horiz-adv-x="1708" 
 />
    <glyph glyph-name="threeeighths" unicode="&#x215c;" horiz-adv-x="1708" 
 />
    <glyph glyph-name="fiveeighths" unicode="&#x215d;" horiz-adv-x="1708" 
 />
    <glyph glyph-name="seveneighths" unicode="&#x215e;" horiz-adv-x="1708" 
 />
    <glyph glyph-name="arrowleft" unicode="&#x2190;" horiz-adv-x="2048" 
 />
    <glyph glyph-name="arrowup" unicode="&#x2191;" horiz-adv-x="1024" 
 />
    <glyph glyph-name="arrowright" unicode="&#x2192;" horiz-adv-x="2048" 
 />
    <glyph glyph-name="arrowdown" unicode="&#x2193;" horiz-adv-x="1024" 
 />
    <glyph glyph-name="arrowboth" unicode="&#x2194;" horiz-adv-x="2048" 
 />
    <glyph glyph-name="arrowupdn" unicode="&#x2195;" horiz-adv-x="1024" 
 />
    <glyph glyph-name="arrowupdnbse" unicode="&#x21a8;" horiz-adv-x="1024" 
 />
    <glyph glyph-name="partialdiff" unicode="&#x2202;" horiz-adv-x="1012" 
 />
    <glyph glyph-name="Delta" unicode="&#x2206;" horiz-adv-x="1253" 
 />
    <glyph glyph-name="product" unicode="&#x220f;" horiz-adv-x="1686" 
 />
    <glyph glyph-name="summation" unicode="&#x2211;" horiz-adv-x="1460" 
 />
    <glyph glyph-name="minus" unicode="&#x2212;" horiz-adv-x="1196" 
 />
    <glyph glyph-name="radical" unicode="&#x221a;" horiz-adv-x="1124" 
 />
    <glyph glyph-name="infinity" unicode="&#x221e;" horiz-adv-x="1460" 
 />
    <glyph glyph-name="orthogonal" unicode="&#x221f;" horiz-adv-x="2005" 
 />
    <glyph glyph-name="intersection" unicode="&#x2229;" horiz-adv-x="1472" 
 />
    <glyph glyph-name="integral" unicode="&#x222b;" horiz-adv-x="561" 
 />
    <glyph glyph-name="approxequal" unicode="&#x2248;" horiz-adv-x="1124" 
 />
    <glyph glyph-name="notequal" unicode="&#x2260;" horiz-adv-x="1124" 
 />
    <glyph glyph-name="equivalence" unicode="&#x2261;" horiz-adv-x="1195" 
 />
    <glyph glyph-name="lessequal" unicode="&#x2264;" horiz-adv-x="1124" 
 />
    <glyph glyph-name="greaterequal" unicode="&#x2265;" horiz-adv-x="1124" 
 />
    <glyph glyph-name="house" unicode="&#x2302;" horiz-adv-x="1237" 
 />
    <glyph glyph-name="revlogicalnot" unicode="&#x2310;" horiz-adv-x="1196" 
 />
    <glyph glyph-name="integraltp" unicode="&#x2320;" horiz-adv-x="1237" 
 />
    <glyph glyph-name="integralbt" unicode="&#x2321;" horiz-adv-x="1237" 
 />
    <glyph glyph-name="SF100000" unicode="&#x2500;" horiz-adv-x="1451" 
 />
    <glyph glyph-name="SF110000" unicode="&#x2502;" horiz-adv-x="1280" 
 />
    <glyph glyph-name="SF010000" unicode="&#x250c;" horiz-adv-x="1451" 
 />
    <glyph glyph-name="SF030000" unicode="&#x2510;" horiz-adv-x="1451" 
 />
    <glyph glyph-name="SF020000" unicode="&#x2514;" horiz-adv-x="1451" 
 />
    <glyph glyph-name="SF040000" unicode="&#x2518;" horiz-adv-x="1451" 
 />
    <glyph glyph-name="SF080000" unicode="&#x251c;" horiz-adv-x="1451" 
 />
    <glyph glyph-name="SF090000" unicode="&#x2524;" horiz-adv-x="1451" 
 />
    <glyph glyph-name="SF060000" unicode="&#x252c;" horiz-adv-x="1451" 
 />
    <glyph glyph-name="SF070000" unicode="&#x2534;" horiz-adv-x="1451" 
 />
    <glyph glyph-name="SF050000" unicode="&#x253c;" horiz-adv-x="1451" 
 />
    <glyph glyph-name="SF430000" unicode="&#x2550;" horiz-adv-x="1451" 
 />
    <glyph glyph-name="SF240000" unicode="&#x2551;" horiz-adv-x="1451" 
 />
    <glyph glyph-name="SF510000" unicode="&#x2552;" horiz-adv-x="1451" 
 />
    <glyph glyph-name="SF520000" unicode="&#x2553;" horiz-adv-x="1451" 
 />
    <glyph glyph-name="SF390000" unicode="&#x2554;" horiz-adv-x="1451" 
 />
    <glyph glyph-name="SF220000" unicode="&#x2555;" horiz-adv-x="1451" 
 />
    <glyph glyph-name="SF210000" unicode="&#x2556;" horiz-adv-x="1451" 
 />
    <glyph glyph-name="SF250000" unicode="&#x2557;" horiz-adv-x="1451" 
 />
    <glyph glyph-name="SF500000" unicode="&#x2558;" horiz-adv-x="1451" 
 />
    <glyph glyph-name="SF490000" unicode="&#x2559;" horiz-adv-x="1451" 
 />
    <glyph glyph-name="SF380000" unicode="&#x255a;" horiz-adv-x="1451" 
 />
    <glyph glyph-name="SF280000" unicode="&#x255b;" horiz-adv-x="1451" 
 />
    <glyph glyph-name="SF270000" unicode="&#x255c;" horiz-adv-x="1451" 
 />
    <glyph glyph-name="SF260000" unicode="&#x255d;" horiz-adv-x="1451" 
 />
    <glyph glyph-name="SF360000" unicode="&#x255e;" horiz-adv-x="1451" 
 />
    <glyph glyph-name="SF370000" unicode="&#x255f;" horiz-adv-x="1451" 
 />
    <glyph glyph-name="SF420000" unicode="&#x2560;" horiz-adv-x="1451" 
 />
    <glyph glyph-name="SF190000" unicode="&#x2561;" horiz-adv-x="1451" 
 />
    <glyph glyph-name="SF200000" unicode="&#x2562;" horiz-adv-x="1451" 
 />
    <glyph glyph-name="SF230000" unicode="&#x2563;" horiz-adv-x="1451" 
 />
    <glyph glyph-name="SF470000" unicode="&#x2564;" horiz-adv-x="1451" 
 />
    <glyph glyph-name="SF480000" unicode="&#x2565;" horiz-adv-x="1451" 
 />
    <glyph glyph-name="SF410000" unicode="&#x2566;" horiz-adv-x="1451" 
 />
    <glyph glyph-name="SF450000" unicode="&#x2567;" horiz-adv-x="1451" 
 />
    <glyph glyph-name="SF460000" unicode="&#x2568;" horiz-adv-x="1451" 
 />
    <glyph glyph-name="SF400000" unicode="&#x2569;" horiz-adv-x="1451" 
 />
    <glyph glyph-name="SF540000" unicode="&#x256a;" horiz-adv-x="1451" 
 />
    <glyph glyph-name="SF530000" unicode="&#x256b;" horiz-adv-x="1451" 
 />
    <glyph glyph-name="SF440000" unicode="&#x256c;" horiz-adv-x="1451" 
 />
    <glyph glyph-name="upblock" unicode="&#x2580;" horiz-adv-x="1451" 
 />
    <glyph glyph-name="dnblock" unicode="&#x2584;" horiz-adv-x="1451" 
 />
    <glyph glyph-name="block" unicode="&#x2588;" horiz-adv-x="1451" 
 />
    <glyph glyph-name="lfblock" unicode="&#x258c;" horiz-adv-x="1451" 
 />
    <glyph glyph-name="rtblock" unicode="&#x2590;" horiz-adv-x="1451" 
 />
    <glyph glyph-name="ltshade" unicode="&#x2591;" horiz-adv-x="1451" 
 />
    <glyph glyph-name="shade" unicode="&#x2592;" horiz-adv-x="1451" 
 />
    <glyph glyph-name="dkshade" unicode="&#x2593;" horiz-adv-x="1493" 
 />
    <glyph glyph-name="filledbox" unicode="&#x25a0;" horiz-adv-x="1237" 
 />
    <glyph glyph-name="H22073" unicode="&#x25a1;" horiz-adv-x="1237" 
 />
    <glyph glyph-name="H18543" unicode="&#x25aa;" horiz-adv-x="726" 
 />
    <glyph glyph-name="H18551" unicode="&#x25ab;" horiz-adv-x="726" 
 />
    <glyph glyph-name="filledrect" unicode="&#x25ac;" horiz-adv-x="2048" 
 />
    <glyph glyph-name="triagup" unicode="&#x25b2;" horiz-adv-x="2027" 
 />
    <glyph glyph-name="triagrt" unicode="&#x25ba;" horiz-adv-x="2027" 
 />
    <glyph glyph-name="triagdn" unicode="&#x25bc;" horiz-adv-x="2027" 
 />
    <glyph glyph-name="triaglf" unicode="&#x25c4;" horiz-adv-x="2027" 
 />
    <glyph glyph-name="lozenge" unicode="&#x25ca;" horiz-adv-x="1012" 
 />
    <glyph glyph-name="circle" unicode="&#x25cb;" horiz-adv-x="1237" 
 />
    <glyph glyph-name="H18533" unicode="&#x25cf;" horiz-adv-x="1237" 
 />
    <glyph glyph-name="invbullet" unicode="&#x25d8;" horiz-adv-x="1237" 
 />
    <glyph glyph-name="invcircle" unicode="&#x25d9;" horiz-adv-x="1237" 
 />
    <glyph glyph-name="openbullet" unicode="&#x25e6;" horiz-adv-x="726" 
 />
    <glyph glyph-name="smileface" unicode="&#x263a;" horiz-adv-x="2091" 
 />
    <glyph glyph-name="invsmileface" unicode="&#x263b;" horiz-adv-x="2155" 
 />
    <glyph glyph-name="sun" unicode="&#x263c;" horiz-adv-x="1877" 
 />
    <glyph glyph-name="female" unicode="&#x2640;" horiz-adv-x="1536" 
 />
    <glyph glyph-name="male" unicode="&#x2642;" horiz-adv-x="1536" 
 />
    <glyph glyph-name="spade" unicode="&#x2660;" horiz-adv-x="1088" 
 />
    <glyph glyph-name="club" unicode="&#x2663;" horiz-adv-x="1344" 
 />
    <glyph glyph-name="heart" unicode="&#x2665;" horiz-adv-x="1216" 
 />
    <glyph glyph-name="diamond" unicode="&#x2666;" horiz-adv-x="1045" 
 />
    <glyph glyph-name="musicalnote" unicode="&#x266a;" horiz-adv-x="1024" 
 />
    <glyph glyph-name="musicalnotedbl" unicode="&#x266b;" horiz-adv-x="1536" 
 />
    <glyph glyph-name="fi" unicode="&#xf001;" horiz-adv-x="1024" 
 />
    <glyph glyph-name="fi" unicode="&#xfb01;" horiz-adv-x="1024" 
 />
    <glyph glyph-name="fl" unicode="&#xf002;" horiz-adv-x="1024" 
 />
    <glyph glyph-name="fl" unicode="&#xfb02;" horiz-adv-x="1024" 
 />
    <glyph glyph-name="commaaccent" unicode="&#xf004;" horiz-adv-x="682" 
 />
    <glyph glyph-name="undercommaaccent" unicode="&#xf005;" horiz-adv-x="682" 
 />
    <glyph glyph-name=".null" horiz-adv-x="0" 
 />
    <glyph glyph-name="nonmarkingreturn" horiz-adv-x="569" 
 />
    <glyph glyph-name="pi1" horiz-adv-x="1124" 
 />
    <glyph glyph-name="middot" horiz-adv-x="682" 
 />
  </font>
</defs>
</svg>
